<?xml version="1.0" encoding="UTF-8"?>
<!DOCTYPE svg PUBLIC "-//W3C//DTD SVG 1.1//EN" "http://www.w3.org/Graphics/SVG/1.1/DTD/svg11.dtd">
<!-- Creator: CorelDRAW -->
<svg xmlns="http://www.w3.org/2000/svg" xml:space="preserve" width="97.6601mm" height="37.9805mm" version="1.1" style="shape-rendering:geometricPrecision; text-rendering:geometricPrecision; image-rendering:optimizeQuality; fill-rule:evenodd; clip-rule:evenodd"
viewBox="0 0 29746.3 11568.48"
 xmlns:xlink="http://www.w3.org/1999/xlink">
 <defs>
  <style type="text/css">
   <![CDATA[
    .str0 {stroke:#2B2B2A;stroke-width:60.92;stroke-miterlimit:22.9256}
    .fil5 {fill:none;fill-rule:nonzero}
    .fil1 {fill:#00CCFF}
    .fil0 {fill:#D7D7D7}
    .fil4 {fill:#2B2B2A;fill-rule:nonzero}
    .fil3 {fill:#5C5C5B;fill-rule:nonzero}
    .fil2 {fill:url(#id0)}
   ]]>
  </style>
  <linearGradient id="id0" gradientUnits="userSpaceOnUse" x1="5165.15" y1="-3.17" x2="10491.36" y2="8662.97">
   <stop offset="0" style="stop-opacity:1; stop-color:#FF6600"/>
   <stop offset="1" style="stop-opacity:1; stop-color:#00CCFF"/>
  </linearGradient>
 </defs>
 <g id="Layer_x0020_1">
  <metadata id="CorelCorpID_0Corel-Layer"/>
  <g id="_107202499276608">
   <path class="fil0" d="M16723.15 4903.75l12582.83 0c242.18,0 440.32,198.17 440.32,440.32l0 464.9c0,1211.02 -990.77,2201.76 -2201.76,2201.76l-10821.38 0c-242.18,0 -440.32,-198.11 -440.32,-440.28l0 -2226.37c0,-242.15 198.14,-440.32 440.32,-440.32z"/>
   <path class="fil1" d="M15376.83 8461.51l-14936.52 0c-242.12,0 -440.32,198.23 -440.32,440.35l0 464.87c0,1210.9 990.77,2201.76 2201.76,2201.76l13175.07 0c242.21,0 440.32,-198.11 440.32,-440.35l0 -2226.28c0,-242.18 -198.26,-440.35 -440.32,-440.35z"/>
   <path class="fil0" d="M15402.33 4903.75c242.21,0 440.38,198.17 440.38,440.32l0 2226.28c0,242.21 -198.17,440.38 -440.38,440.38l-3313.67 0c-242.21,0 -440.38,-198.14 -440.38,-440.38l0 -1958.24c-42.25,-1383.97 414.24,-2592.85 1581.34,-3407.05 340.11,-237.25 498.86,-224.51 486.34,-31.8 -5,76.79 -30.43,132.22 -92.72,288.17 -38.68,96.83 -70.45,192.26 -95.25,285.8 -294.05,1108.43 379.12,1967.23 1874.33,2156.53z"/>
   <path class="fil2" d="M7933.99 4896.22c581.8,13.49 1049.31,489.29 1049.31,1074.38 0,593.59 -481.13,1074.69 -1074.69,1074.69 -593.59,0 -1074.72,-481.1 -1074.72,-1074.69 0,-301.91 131.03,-568.18 324.88,-769.82 647.65,-673.88 1427.1,-982.21 2053.97,-1613.23 444.21,-372.48 726.72,-931.53 726.72,-1556.64 0,-1121.65 -909.29,-2030.92 -2030.88,-2030.92 -1121.65,0 -2030.92,909.26 -2030.92,2030.92 0,669.79 324.33,1263.81 824.37,1633.73l1000.52 -720.14c-418.02,-93.91 -730.44,-467.21 -730.44,-913.59 0,-517.19 419.24,-936.43 936.46,-936.43 580.46,0 1000.06,514.09 928.45,1059.09 -67.95,317.44 -431.82,709.94 -739.03,868.75 -406.54,274.59 -792.03,535.41 -1129.18,792.18 -285.49,217.48 -536.26,432.18 -735.74,650 -371.9,406.14 -538.42,971.64 -538.42,1506.14 0,1222.69 991.2,2213.88 2213.91,2213.88 1222.69,0 2213.88,-991.2 2213.88,-2213.88 0,-788 -411.84,-1479.73 -1031.89,-1872.04l-1156.59 797.63z"/>
   <path class="fil3" d="M20236.29 10922.02c8.16,67.92 27.17,114.1 51.6,144.01 46.21,51.6 133.14,76.03 260.82,76.03 73.38,0 133.11,-10.84 176.6,-35.3 43.47,-21.72 65.18,-54.34 65.18,-97.8 0,-43.47 -16.3,-76.06 -51.63,-97.8 -35.3,-21.75 -168.41,-59.79 -393.93,-114.13 -162.99,-40.72 -279.83,-89.64 -347.75,-152.11 -67.89,-59.76 -100.51,-146.69 -100.51,-260.82 0,-133.11 51.63,-247.21 157.56,-342.33 105.97,-95.09 252.69,-143.98 442.87,-143.98 182.02,0 328.68,35.33 440.1,105.97 114.1,73.35 179.28,198.32 195.64,374.92l-377.69 0c-5.39,-48.92 -19.01,-86.96 -40.72,-116.84 -40.75,-51.6 -111.39,-76.06 -211.93,-76.06 -81.48,0 -141.27,13.55 -176.57,38.04 -35.33,24.46 -51.63,54.34 -51.63,89.64 0,43.5 19.04,76.09 57.08,95.09 35.3,19.04 168.41,54.34 393.93,105.97 149.43,35.3 263.5,86.93 336.85,160.28 73.38,73.35 111.42,163.02 111.42,271.66 0,144.01 -54.34,260.85 -160.31,350.49 -105.94,89.64 -271.66,135.82 -494.47,135.82 -225.46,0 -393.93,-48.89 -502.57,-143.98 -108.68,-95.06 -163.02,-217.36 -163.02,-366.76l383.08 0z"/>
   <path id="_1" class="fil3" d="M22249.42 10680.24c-24.43,16.3 -46.15,29.85 -70.63,38.04 -24.4,8.1 -59.76,16.3 -100.48,24.4l-84.25 16.36c-78.77,13.55 -135.82,32.59 -171.15,51.6 -59.76,35.33 -89.64,86.93 -89.64,160.31 0,65.18 19.01,111.39 54.34,141.24 35.3,29.88 78.77,43.5 130.4,43.5 81.51,0 157.56,-24.46 225.49,-73.35 67.92,-46.21 103.23,-133.14 105.94,-260.82l0 -141.27zm-228.17 -176.6c70.6,-8.16 119.52,-19.01 149.43,-32.62 54.31,-24.43 81.48,-59.73 81.48,-105.94 0,-59.76 -21.75,-100.51 -62.47,-124.97 -40.75,-21.75 -100.55,-32.59 -179.34,-32.59 -89.64,0 -154.85,21.72 -190.16,65.18 -27.2,32.62 -46.18,76.06 -54.34,133.14l-364.05 0c8.16,-127.68 43.47,-230.94 105.94,-312.45 100.55,-127.68 271.69,-190.16 513.51,-190.16 160.28,0 301.54,32.59 423.78,95.09 122.29,62.47 184.76,179.31 184.76,355.88l0 662.88c0,46.21 0,100.55 2.71,165.73 2.71,51.63 8.16,84.22 21.75,100.55 13.58,19.04 29.88,32.59 54.34,43.47l0 57.05 -410.22 0c-10.9,-29.88 -19.04,-57.05 -24.46,-81.48 -2.74,-24.46 -8.19,-54.34 -10.87,-89.7 -51.63,57.05 -111.39,106 -179.34,146.72 -81.48,46.21 -173.86,70.63 -277.09,70.63 -130.4,0 -239.07,-38.01 -323.29,-114.1 -84.25,-73.35 -127.68,-179.28 -127.68,-317.87 0,-176.57 67.92,-307 203.74,-385.76 76.06,-43.5 187.48,-73.35 334.17,-92.38l127.71 -16.3z"/>
   <path id="_2" class="fil3" d="M23759.97 10680.24c-24.43,16.3 -46.15,29.85 -70.63,38.04 -24.4,8.1 -59.76,16.3 -100.48,24.4l-84.25 16.36c-78.77,13.55 -135.82,32.59 -171.15,51.6 -59.76,35.33 -89.64,86.93 -89.64,160.31 0,65.18 19.01,111.39 54.34,141.24 35.3,29.88 78.77,43.5 130.4,43.5 81.51,0 157.56,-24.46 225.49,-73.35 67.92,-46.21 103.23,-133.14 105.94,-260.82l0 -141.27zm-228.17 -176.6c70.6,-8.16 119.52,-19.01 149.43,-32.62 54.31,-24.43 81.48,-59.73 81.48,-105.94 0,-59.76 -21.75,-100.51 -62.47,-124.97 -40.75,-21.75 -100.55,-32.59 -179.34,-32.59 -89.64,0 -154.85,21.72 -190.16,65.18 -27.2,32.62 -46.18,76.06 -54.34,133.14l-364.05 0c8.16,-127.68 43.47,-230.94 105.94,-312.45 100.55,-127.68 271.69,-190.16 513.51,-190.16 160.28,0 301.54,32.59 423.78,95.09 122.29,62.47 184.76,179.31 184.76,355.88l0 662.88c0,46.21 0,100.55 2.71,165.73 2.74,51.63 8.16,84.22 21.75,100.55 13.58,19.04 29.88,32.59 54.34,43.47l0 57.05 -410.22 0c-10.9,-29.88 -19.04,-57.05 -24.46,-81.48 -2.74,-24.46 -8.19,-54.34 -10.87,-89.7 -51.63,57.05 -111.39,106 -179.34,146.72 -81.48,46.21 -173.86,70.63 -277.09,70.63 -130.4,0 -239.07,-38.01 -323.29,-114.1 -84.25,-73.35 -127.68,-179.28 -127.68,-317.87 0,-176.57 67.92,-307 203.74,-385.76 76.06,-43.5 187.48,-73.35 334.17,-92.38l127.71 -16.3z"/>
   <path id="_3" class="fil3" d="M24325.08 10221.07l0 -268.95 201.06 0 0 -404.8 374.95 0 0 404.8 236.36 0 0 268.95 -236.36 0 0 763.42c0,59.79 8.13,97.83 21.69,111.39 16.36,13.58 62.5,21.75 138.59,21.75 13.58,0 24.43,0 38.04,0 13.58,-2.71 24.43,-2.71 38.04,-2.71l0 282.54 -179.31 5.42c-179.34,8.13 -301.61,-24.46 -366.79,-92.35 -43.47,-43.5 -65.21,-111.42 -65.21,-201.06l0 -888.4 -201.06 0z"/>
   <path id="_4" class="fil3" d="M25740.54 11044.28c48.95,51.6 116.84,78.77 203.77,78.77 86.93,0 154.85,-27.17 203.77,-78.77 48.89,-51.63 73.35,-124.97 73.35,-220.07 0,-97.83 -24.46,-171.18 -76.06,-222.78 -48.89,-51.63 -116.84,-76.09 -201.06,-76.09 -84.22,0 -152.14,24.46 -203.77,76.09 -48.89,51.6 -73.35,124.94 -73.35,222.78 0,95.09 24.46,168.44 73.35,220.07zm-393.93 -486.31c51.63,-89.64 122.26,-154.88 217.36,-198.32 -92.38,-62.5 -152.17,-127.68 -182.02,-201.06 -27.17,-73.35 -40.78,-138.56 -40.78,-201.03 0,-141.27 51.63,-260.82 157.63,-358.62 105.94,-97.8 252.66,-146.69 445.52,-146.69 192.9,0 339.59,48.89 445.55,146.69 105.97,97.8 157.59,217.36 157.59,358.62 0,62.47 -13.62,127.68 -40.75,201.03 -29.88,73.38 -89.67,135.85 -182.05,187.44 95.12,51.63 165.76,122.29 214.64,211.93 46.21,86.93 70.63,184.7 70.63,293.38 0,160.34 -59.76,298.86 -179.31,412.99 -119.52,114.07 -287.99,171.15 -502.6,171.15 -214.61,0 -377.63,-57.08 -489.02,-171.15 -111.39,-114.13 -165.73,-252.66 -165.73,-412.99 0,-108.68 24.46,-206.45 73.35,-293.38zm418.38 -388.5c43.5,46.21 103.23,67.89 179.31,67.89 76.09,0 135.85,-21.69 179.31,-67.89 40.75,-43.5 62.5,-100.51 62.5,-171.15 0,-76.09 -21.75,-135.85 -62.5,-176.63 -43.47,-43.43 -103.23,-65.18 -179.31,-65.18 -76.09,0 -135.82,21.75 -179.31,65.18 -40.75,40.78 -62.5,100.55 -62.5,176.63 0,70.63 21.75,127.65 62.5,171.15z"/>
   <polygon id="_5" class="fil3" points="26884.37,10987.23 27283.68,10987.23 27283.68,11383.87 26884.37,11383.87 "/>
   <path id="_6" class="fil3" d="M28032.67 9764.64l-383.08 0 0 -347.72 383.08 0 0 347.72zm-383.08 173.89l383.08 0 0 1445.34 -383.08 0 0 -1445.34z"/>
   <path id="_7" class="fil3" d="M29202.69 9903.23c2.74,2.71 13.58,2.71 32.59,2.71l0 388.5c-24.46,-2.74 -46.15,-5.45 -65.18,-5.45 -19.01,-2.68 -32.62,-2.68 -43.47,-2.68 -152.17,0 -255.4,48.89 -307,149.37 -29.88,57.08 -43.5,141.33 -43.5,258.11l0 690.08 -383.02 0 0 -1445.34 361.34 0 0 252.69c59.73,-97.83 111.33,-163.02 152.11,-198.35 73.35,-59.76 165.73,-89.64 277.12,-89.64 8.13,0 13.58,0 19.01,0z"/>
   <path class="fil4" d="M28845.68 8434.31l290.34 0c52.51,0 96.8,6.98 130.61,20.99 33.81,15.14 61.8,32.65 81.63,54.8 19.83,22.14 32.65,47.82 40.82,74.66 8.16,27.96 11.67,54.8 11.67,80.44 0,26.8 -4.66,51.32 -13.98,75.81 -9.35,24.46 -22.14,46.63 -39.63,66.46 -17.54,19.83 -39.66,37.31 -64.18,50.14 -25.65,13.98 -53.64,22.14 -85.1,25.68l234.38 376.63 -139.96 0 -209.86 -363.83 -124.76 0 0 363.83 -111.97 0 0 -825.59zm111.97 363.83l146.9 0c22.14,0 43.13,-2.35 65.3,-5.85 20.99,-3.5 39.63,-9.35 57.11,-18.67 16.36,-9.32 29.18,-23.3 39.66,-40.78 10.51,-17.48 15.2,-39.66 15.2,-67.65 0,-27.99 -4.69,-51.29 -15.2,-68.78 -10.48,-17.48 -23.3,-30.34 -39.66,-39.66 -17.48,-9.35 -36.12,-16.33 -57.11,-19.83 -22.17,-3.5 -43.16,-4.69 -65.3,-4.69l-146.9 0 0 265.91z"/>
   <circle class="fil5 str0" cx="29093.04" cy="8861.72" r="593.21"/>
  </g>
 </g>
</svg>
