<?xml version="1.0" encoding="UTF-8"?>
<!DOCTYPE svg PUBLIC "-//W3C//DTD SVG 1.1//EN" "http://www.w3.org/Graphics/SVG/1.1/DTD/svg11.dtd">
<!-- Creator: CorelDRAW -->
<svg xmlns="http://www.w3.org/2000/svg" xml:space="preserve" width="77.97mm" height="30.1688mm" version="1.1" style="shape-rendering:geometricPrecision; text-rendering:geometricPrecision; image-rendering:optimizeQuality; fill-rule:evenodd; clip-rule:evenodd"
viewBox="0 0 11623.01 4497.27"
 xmlns:xlink="http://www.w3.org/1999/xlink">
 <defs>
  <style type="text/css">
   <![CDATA[
    .str0 {stroke:#2B2B2A;stroke-width:29.81;stroke-miterlimit:22.9256}
    .fil5 {fill:none;fill-rule:nonzero}
    .fil1 {fill:#00CCFF}
    .fil0 {fill:#D7D7D7}
    .fil4 {fill:#2B2B2A;fill-rule:nonzero}
    .fil3 {fill:#5C5C5B;fill-rule:nonzero}
    .fil2 {fill:url(#id0)}
   ]]>
  </style>
  <linearGradient id="id0" gradientUnits="userSpaceOnUse" x1="2007.96" y1="-1.24" x2="4078.55" y2="3367.75">
   <stop offset="0" style="stop-opacity:1; stop-color:#FF6600"/>
   <stop offset="1" style="stop-opacity:1; stop-color:#00CCFF"/>
  </linearGradient>
 </defs>
 <g id="Layer_x0020_1">
  <metadata id="CorelCorpID_0Corel-Layer"/>
  <g id="_105553158393888">
   <path class="fil0" d="M6501.18 1906.34l4891.61 0c94.15,0 171.18,77.04 171.18,171.18l0 180.73c0,470.78 -385.17,855.93 -855.95,855.93l-4206.84 0c-94.15,0 -171.18,-77.01 -171.18,-171.16l0 -865.5c0,-94.14 77.02,-171.18 171.18,-171.18z"/>
   <path class="fil1" d="M5977.79 3289.43l-5806.61 0c-94.12,0 -171.18,77.07 -171.18,171.19l0 180.72c0,470.73 385.17,855.93 855.95,855.93l5121.84 0c94.15,0 171.18,-77.01 171.18,-171.18l0 -865.47c0,-94.15 -77.08,-171.19 -171.18,-171.19z"/>
   <path class="fil0" d="M5987.7 1906.34c94.15,0 171.19,77.04 171.19,171.18l0 865.47c0,94.15 -77.04,171.19 -171.19,171.19l-1288.21 0c-94.15,0 -171.19,-77.02 -171.19,-171.19l0 -761.27c-16.43,-538.02 161.04,-1007.98 614.75,-1324.5 132.21,-92.23 193.93,-87.28 189.07,-12.36 -1.94,29.84 -11.84,51.4 -36.05,112.03 -15.04,37.64 -27.38,74.74 -37.03,111.1 -114.31,430.9 147.39,764.76 728.66,838.36z"/>
   <path class="fil2" d="M3084.37 1903.42c226.17,5.25 407.92,190.21 407.92,417.67 0,230.76 -187.04,417.78 -417.78,417.78 -230.76,0 -417.8,-187.02 -417.8,-417.78 0,-117.36 50.94,-220.88 126.29,-299.27 251.78,-261.96 554.79,-381.83 798.49,-627.14 172.68,-144.81 282.52,-362.14 282.52,-605.15 0,-436.05 -353.49,-789.52 -789.52,-789.52 -436.05,0 -789.52,353.48 -789.52,789.52 0,260.38 126.08,491.31 320.47,635.11l388.95 -279.95c-162.5,-36.51 -283.95,-181.63 -283.95,-355.16 0,-201.07 162.98,-364.04 364.04,-364.04 225.66,0 388.78,199.86 360.94,411.73 -26.42,123.4 -167.87,275.99 -287.3,337.72 -158.04,106.75 -307.9,208.15 -438.97,307.96 -110.98,84.55 -208.47,168.02 -286.02,252.69 -144.58,157.9 -209.31,377.73 -209.31,585.52 0,475.33 385.33,860.66 860.66,860.66 475.33,0 860.66,-385.33 860.66,-860.66 0,-306.34 -160.1,-575.25 -401.15,-727.76l-449.63 310.08z"/>
   <path class="fil3" d="M8124.61 1600.43c3.18,26.4 10.57,44.35 20.06,55.98 17.96,20.06 51.76,29.56 101.4,29.56 28.52,0 51.74,-4.22 68.65,-13.73 16.9,-8.44 25.34,-21.12 25.34,-38.01 0,-16.9 -6.34,-29.58 -20.06,-38.03 -13.73,-8.45 -65.47,-23.24 -153.14,-44.36 -63.37,-15.83 -108.79,-34.85 -135.19,-59.14 -26.4,-23.24 -39.07,-57.03 -39.07,-101.4 0,-51.74 20.06,-96.11 61.25,-133.08 41.19,-36.97 98.22,-55.98 172.16,-55.98 70.76,0 127.78,13.73 171.09,41.19 44.36,28.52 69.71,77.1 76.06,145.76l-146.82 0c-2.1,-19.02 -7.39,-33.81 -15.83,-45.42 -15.85,-20.06 -43.3,-29.58 -82.39,-29.58 -31.68,0 -54.92,5.28 -68.65,14.79 -13.73,9.51 -20.06,21.12 -20.06,34.85 0,16.9 7.39,29.58 22.18,36.97 13.73,7.39 65.47,21.12 153.14,41.19 58.09,13.73 102.44,33.79 130.96,62.31 28.52,28.52 43.3,63.37 43.3,105.62 0,55.98 -21.12,101.4 -62.31,136.25 -41.19,34.85 -105.62,52.8 -192.23,52.8 -87.65,0 -153.14,-19.01 -195.39,-55.98 -42.25,-36.95 -63.37,-84.49 -63.37,-142.57l148.92 0z"/>
   <path id="_1" class="fil3" d="M8907.23 1506.43c-9.5,6.34 -17.95,11.61 -27.46,14.79 -9.5,3.16 -23.24,6.34 -39.07,9.5l-32.75 6.35c-30.62,5.28 -52.8,12.67 -66.53,20.06 -23.24,13.73 -34.85,33.79 -34.85,62.31 0,25.34 7.39,43.3 21.12,54.92 13.73,11.61 30.62,16.9 50.7,16.9 31.68,0 61.25,-9.51 87.65,-28.52 26.4,-17.96 40.13,-51.76 41.19,-101.4l0 -54.92zm-88.71 -68.65c27.46,-3.18 46.47,-7.39 58.09,-12.69 21.12,-9.5 31.68,-23.23 31.68,-41.19 0,-23.23 -8.45,-39.07 -24.28,-48.58 -15.85,-8.45 -39.09,-12.67 -69.72,-12.67 -34.85,0 -60.19,8.45 -73.92,25.34 -10.57,12.69 -17.95,29.58 -21.12,51.76l-141.53 0c3.18,-49.64 16.9,-89.77 41.19,-121.46 39.09,-49.64 105.62,-73.92 199.62,-73.92 62.31,0 117.23,12.67 164.75,36.97 47.54,24.28 71.82,69.71 71.82,138.35l0 257.7c0,17.96 0,39.09 1.06,64.43 1.06,20.06 3.18,32.74 8.45,39.09 5.28,7.39 11.61,12.67 21.12,16.89l0 22.18 -159.48 0c-4.23,-11.61 -7.39,-22.18 -9.51,-31.68 -1.06,-9.51 -3.18,-21.12 -4.22,-34.87 -20.08,22.18 -43.3,41.2 -69.72,57.03 -31.68,17.96 -67.59,27.46 -107.72,27.46 -50.7,0 -92.95,-14.77 -125.68,-44.35 -32.75,-28.52 -49.64,-69.71 -49.64,-123.58 0,-68.65 26.4,-119.35 79.2,-149.96 29.58,-16.9 72.88,-28.52 129.91,-35.91l49.64 -6.34z"/>
   <path id="_2" class="fil3" d="M9494.46 1506.43c-9.5,6.34 -17.95,11.61 -27.46,14.79 -9.5,3.16 -23.24,6.34 -39.07,9.5l-32.75 6.35c-30.62,5.28 -52.8,12.67 -66.53,20.06 -23.24,13.73 -34.85,33.79 -34.85,62.31 0,25.34 7.39,43.3 21.12,54.92 13.73,11.61 30.62,16.9 50.7,16.9 31.68,0 61.25,-9.51 87.65,-28.52 26.4,-17.96 40.13,-51.76 41.19,-101.4l0 -54.92zm-88.71 -68.65c27.46,-3.18 46.47,-7.39 58.09,-12.69 21.12,-9.5 31.68,-23.23 31.68,-41.19 0,-23.23 -8.45,-39.07 -24.28,-48.58 -15.85,-8.45 -39.09,-12.67 -69.72,-12.67 -34.85,0 -60.19,8.45 -73.92,25.34 -10.57,12.69 -17.95,29.58 -21.12,51.76l-141.53 0c3.18,-49.64 16.9,-89.77 41.19,-121.46 39.09,-49.64 105.62,-73.92 199.62,-73.92 62.31,0 117.23,12.67 164.75,36.97 47.54,24.28 71.82,69.71 71.82,138.35l0 257.7c0,17.96 0,39.09 1.06,64.43 1.06,20.06 3.18,32.74 8.45,39.09 5.28,7.39 11.61,12.67 21.12,16.89l0 22.18 -159.48 0c-4.23,-11.61 -7.39,-22.18 -9.51,-31.68 -1.06,-9.51 -3.18,-21.12 -4.22,-34.87 -20.08,22.18 -43.3,41.2 -69.72,57.03 -31.68,17.96 -67.59,27.46 -107.72,27.46 -50.7,0 -92.95,-14.77 -125.68,-44.35 -32.75,-28.52 -49.64,-69.71 -49.64,-123.58 0,-68.65 26.4,-119.35 79.2,-149.96 29.58,-16.9 72.88,-28.52 129.91,-35.91l49.64 -6.34z"/>
   <path id="_3" class="fil3" d="M9714.15 1327.93l0 -104.56 78.16 0 0 -157.37 145.76 0 0 157.37 91.89 0 0 104.56 -91.89 0 0 296.78c0,23.24 3.16,38.03 8.44,43.3 6.35,5.28 24.3,8.45 53.87,8.45 5.28,0 9.5,0 14.79,0 5.28,-1.06 9.5,-1.06 14.79,-1.06l0 109.83 -69.71 2.12c-69.72,3.16 -117.24,-9.51 -142.59,-35.91 -16.9,-16.9 -25.36,-43.3 -25.36,-78.16l0 -345.37 -78.16 0z"/>
   <path id="_4" class="fil3" d="M10264.41 1647.96c19.02,20.06 45.42,30.62 79.22,30.62 33.79,0 60.19,-10.55 79.22,-30.62 19.01,-20.06 28.52,-48.58 28.52,-85.55 0,-38.03 -9.51,-66.54 -29.58,-86.61 -19.01,-20.06 -45.42,-29.58 -78.16,-29.58 -32.74,0 -59.15,9.51 -79.22,29.58 -19.01,20.06 -28.52,48.58 -28.52,86.61 0,36.97 9.51,65.49 28.52,85.55zm-153.14 -189.05c20.06,-34.85 47.52,-60.21 84.49,-77.1 -35.91,-24.3 -59.15,-49.64 -70.76,-78.16 -10.55,-28.52 -15.85,-53.87 -15.85,-78.16 0,-54.92 20.06,-101.4 61.27,-139.41 41.19,-38.03 98.22,-57.03 173.2,-57.03 74.98,0 132.02,19.01 173.2,57.03 41.2,38.01 61.27,84.49 61.27,139.41 0,24.28 -5.29,49.64 -15.85,78.16 -11.61,28.52 -34.85,52.8 -70.76,72.87 36.97,20.06 64.43,47.54 83.43,82.39 17.96,33.79 27.46,71.81 27.46,114.05 0,62.33 -23.23,116.19 -69.71,160.55 -46.47,44.35 -111.95,66.53 -195.39,66.53 -83.43,0 -146.8,-22.18 -190.11,-66.53 -43.3,-44.36 -64.43,-98.22 -64.43,-160.55 0,-42.25 9.51,-80.26 28.52,-114.05zm162.65 -151.04c16.9,17.96 40.13,26.4 69.71,26.4 29.58,0 52.82,-8.44 69.71,-26.4 15.85,-16.9 24.3,-39.07 24.3,-66.53 0,-29.58 -8.45,-52.82 -24.3,-68.66 -16.89,-16.89 -40.13,-25.34 -69.71,-25.34 -29.58,0 -52.8,8.45 -69.71,25.34 -15.85,15.85 -24.3,39.09 -24.3,68.66 0,27.46 8.45,49.63 24.3,66.53z"/>
   <polygon id="_5" class="fil3" points="10709.07,1625.78 10864.31,1625.78 10864.31,1779.97 10709.07,1779.97 "/>
   <path id="_6" class="fil3" d="M11155.48 1150.49l-148.92 0 0 -135.18 148.92 0 0 135.18zm-148.92 67.6l148.92 0 0 561.88 -148.92 0 0 -561.88z"/>
   <path id="_7" class="fil3" d="M11610.34 1204.37c1.06,1.06 5.28,1.06 12.67,1.06l0 151.02c-9.51,-1.06 -17.95,-2.12 -25.34,-2.12 -7.39,-1.04 -12.69,-1.04 -16.9,-1.04 -59.15,0 -99.28,19.01 -119.35,58.08 -11.61,22.18 -16.9,54.93 -16.9,100.34l0 268.27 -148.91 0 0 -561.88 140.47 0 0 98.22c23.23,-38.03 43.29,-63.37 59.14,-77.1 28.52,-23.24 64.43,-34.85 107.73,-34.85 3.16,0 5.28,0 7.39,0z"/>
   <path class="fil4" d="M7577.06 783.68l135.49 0c24.49,0 45.17,3.26 60.95,9.79 15.77,7.08 28.85,15.23 38.09,25.58 9.26,10.35 15.23,22.32 19.05,34.82 3.8,13.06 5.44,25.58 5.44,37.55 0,12.52 -2.18,23.94 -6.53,35.37 -4.35,11.42 -10.35,21.76 -18.5,31.01 -8.17,9.26 -18.51,17.43 -29.93,23.4 -11.97,6.53 -25.03,10.35 -39.73,11.97l109.37 175.77 -65.29 0 -97.95 -169.78 -58.23 0 0 169.78 -52.23 0 0 -385.27zm52.23 169.78l68.57 0c10.33,0 20.12,-1.09 30.47,-2.71 9.79,-1.64 18.5,-4.35 26.67,-8.71 7.62,-4.35 13.6,-10.88 18.5,-19.05 4.89,-8.15 7.07,-18.5 7.07,-31.56 0,-13.06 -2.18,-23.94 -7.07,-32.11 -4.9,-8.15 -10.88,-14.15 -18.5,-18.5 -8.17,-4.35 -16.87,-7.62 -26.67,-9.24 -10.35,-1.64 -20.14,-2.18 -30.47,-2.18l-68.57 0 0 124.06z"/>
   <circle class="fil5 str0" cx="7692.49" cy="983.15" r="276.82"/>
  </g>
 </g>
</svg>
