<?xml version="1.0" encoding="UTF-8"?>
<!DOCTYPE svg PUBLIC "-//W3C//DTD SVG 1.1//EN" "http://www.w3.org/Graphics/SVG/1.1/DTD/svg11.dtd">
<!-- Creator: CorelDRAW -->
<svg xmlns="http://www.w3.org/2000/svg" xml:space="preserve" width="150mm" height="90mm" version="1.1" style="shape-rendering:geometricPrecision; text-rendering:geometricPrecision; image-rendering:optimizeQuality; fill-rule:evenodd; clip-rule:evenodd"
viewBox="0 0 14997.06 8998.24"
 xmlns:xlink="http://www.w3.org/1999/xlink">
 <defs>
  <style type="text/css">
   <![CDATA[
    .fil0 {fill:none}
    .fil1 {fill:#898989}
    .fil2 {fill:#CCCCCC}
    .fil4 {fill:#FAFAFA}
    .fil3 {fill:white}
   ]]>
  </style>
 </defs>
 <g id="Layer_x0020_1">
  <metadata id="CorelCorpID_0Corel-Layer"/>
  <rect class="fil0" width="14997.06" height="8998.24"/>
  <g id="_105553345041376">
   <path class="fil1" d="M12574.03 7639.43l-55.59 -4.7c39.89,-31.67 61.88,-34.56 121.91,-33.78 103.23,-49.21 146.05,-6.17 183.93,-153.11l-72.12 13.01 -226.03 97.65 41.23 -55.03 -46.78 -22.62c-14.26,62 -90.4,84.72 -145.38,131.43 73.49,27.98 6.08,-27.47 78.99,21.41 -71.34,34.44 -353.41,57.41 -516.9,406.72 -189.66,405.22 0.69,607.73 6.27,743.57l58.88 25.87c-11.8,-75.82 -62.86,-142.99 -83.79,-256.78 -7.57,-132.44 -48.14,-171.58 -11.05,-328.46 29.58,-125.1 64.96,-186.02 138.72,-288.51 121.05,-168.19 315.5,-295.83 521.11,-253.27 49.59,-16.88 164.67,-4.66 205.69,29.42 -4.56,68.78 -38.6,-15.82 -2.44,63.58l-0.71 -9.74 57.2 6.92c41.88,-23.84 0.59,-13.24 85.13,-3.9 230.33,67.52 247.37,201.89 215.61,426.83 -43.16,305.8 -207.52,452.75 -486.21,566.98 -155.85,63.88 -138.25,7.04 -263.15,-11.49 -127.69,-18.95 -160.22,34.29 -255.46,99.04 -72.5,49.29 -171.3,77.24 -224.02,135.79l271.83 2.71c36.79,-57.18 88.72,-85.09 149.92,-120.45 98.83,-57.11 203.16,102.89 390.18,1.64 55,-29.78 123.74,-57.9 165.46,-100.83 65.32,59.9 73.08,129.29 79.57,220.17l39.81 0 -3.36 -294.34c110.34,-131.77 170.05,-158.88 201.02,-362.28 22.78,-149.57 75.61,-383.17 -41.95,-493.63 57.02,-92.93 121.79,-216.33 169.71,-305.68 54.82,55.43 66.08,135.43 62.88,211.47 31.07,6.8 19.15,43.88 23.93,95.31 7.02,67.65 16.43,156.51 28.23,226.71 9.35,55.57 33.84,171.4 36.84,218.1 63.98,69.68 50.78,200.79 125.74,345.14 43.72,84.23 127.87,253.8 204.37,279.58 -33.98,-124.21 -284.53,-318.72 -302.46,-1015.91 -18.11,-61.3 -29.34,-58.42 -0.62,-106.97 17,65.49 45.1,119.61 43.74,180.45 33.36,0 21.21,-6.79 23.63,33.22 8.51,8.42 107.2,201.08 122.22,233.61 4.26,-4.21 13.91,-15.06 14.73,-10.27 0.81,4.78 6.15,-10.37 10.39,-14.56 2.78,-2.75 -7.57,-10.65 -8.55,-8.04 -14.22,37.7 -221.9,-480.79 -213.66,-706.56 -123.56,-66.88 168.14,-640.98 201.18,-849.43 73.46,-463.43 106.01,-485.21 32.4,-1016.57 48.02,-53.7 71.71,-68.83 115.67,-138.06 34.36,-54.14 60.51,-138.42 94.01,-174.72l-4.29 -251.08c72.77,70.2 50.82,196.75 81.81,304.54 119.2,414.48 92.04,506.97 312.17,1004.48 108.25,244.64 458.32,992.2 643.56,1133.78 5.36,-169.18 7.27,-74.04 -132.76,-310.15 -171.03,-288.36 -321.93,-506.41 -442.31,-856.24 -29.67,-86.21 -87.48,-212.61 -124.55,-306 -43.76,-110.31 -69.72,-228.53 -102.48,-342.07 -54.35,-188.4 -102.89,-537.75 -181.54,-694.19 57.22,-50.41 23.33,-75.33 19.41,-150.22 -43.59,-13.95 -31.78,-20.78 -27.59,-43.18l-23.09 -63.28c369.01,176.44 338.51,196.84 664.54,31.22 67.24,-34.16 162.36,-58.87 121.48,-146.39 -339.64,178.3 -517.53,10.66 -708.1,-258.28 -152.61,-215.38 -218.27,-308.44 -124.35,-662.37 55.24,-208.17 92.9,-101.6 57.62,-193.6 38.45,13.6 15.46,32.01 64.12,-22.24 36.83,-41.04 37.31,-49.13 41.2,-100.71 -124.61,-15.94 -207.09,96.17 -292.39,168.32 -128.07,108.33 -121.64,152.21 -207.59,258.29 -74.18,-145.97 -130,-138.95 -286.52,-174.27 -79.21,-17.87 -298.77,-82.93 -336.33,-140.09l-52.89 23.15 -26.46 -77.39c-85.04,-11.95 -135.21,-71.15 -207.4,-111.34 -77.7,-43.25 -107.3,-100.92 -193.01,-122.47 -73.99,101.76 102.23,255.73 179.93,330.88 115.81,111.98 318,220.77 350.88,250.53 -79.85,46.5 -152.42,7.36 -259.07,-0.2 -67.58,-305.75 -167.66,-171.83 -479.38,-397.19 -334.68,-241.97 -210.05,-259.3 -404.03,-467.26 -59.39,85.78 7.98,259.59 46.11,362.07 59.25,159.21 81.44,201.14 158.2,345.09 -88.27,-24.16 -229.18,-82.13 -316.75,-116.04 -127.53,-49.37 -241.39,-49.34 -372.35,-73.03 -241.84,-43.75 -347,-21.73 -592.64,-1.37 -80.24,6.66 -115.03,-18.86 -198.07,-8.87l6.99 -12.49c-336.2,-41.31 -548.58,-154.21 -1042.46,-142.96 -831.41,18.96 -1154.72,91.95 -1806.48,575.76 -77.44,57.49 -260.45,222.28 -311.61,296.13 -82.52,119.18 -168.21,234.64 -243.47,361.94 -66.22,112 -162.87,278.11 -216.46,389.68 -266.69,555.38 -118.97,1046.72 -138.5,1268.77 -40.31,458.31 -39.91,837.53 114.89,1306.82 43.7,132.48 127.84,276.55 204.28,403.65 27.6,45.9 244.66,332.11 279.01,348.68l17.22 -32.61 -56.5 -125.3c43.04,39.84 69.53,115.89 103.31,173.08 105.82,86.96 194.51,321.06 231.98,379.27 28.45,44.18 99.14,167.32 126.19,195.21 53.6,55.29 112.34,104.82 163.47,156.54l145.89 0.53c-29.12,-75.35 -53.88,-66.32 -123.31,-130.3 -354.04,-326.31 -563.75,-792.61 -409.35,-1278.44 148.53,-467.39 219.29,-187.62 225.06,-798.76 1.8,-190.27 -4.62,-651.95 52.98,-839.75 18.41,-59.99 25.7,-39.77 40.85,-89.12 44.07,-181.58 168.31,-289.24 188.74,-386.78 -89.95,37.64 -49.05,24.86 -99.41,107.26 -84.57,138.4 -82.91,73.02 -43.63,112.24 -72.12,21.01 -99.85,94.44 -124.25,161.76 -27.06,74.69 -67.57,100.81 -103.67,200.96 -27.58,76.52 -180.03,376.1 -99.88,418.79l-52.55 -16.67 -13.07 236.35c-33.36,-49.98 -37.49,-154.05 -42.09,-228.26 -1.65,-119.24 -27.61,-446.39 42.13,-524.78 -10.96,-184.57 150.59,-519.57 236.71,-689.2 116.15,-228.79 -43.73,1.6 132.87,-222.53 47.04,-59.7 16.3,-44.44 90.37,-92.4 5.73,-43.39 -0.19,-47.61 47.57,-74.31 6.69,-35.94 -4.68,-31.46 27.35,-23.37 23.62,-68.44 -12.74,29.28 8.84,-43.97l-44.26 -3.83 -90.44 109.17 8.53 -38 -5.79 -153.02 -41.35 18.29 -17.37 81.47c-2.74,29.58 5.96,24.71 -21.17,20.65 5.56,30.43 13.69,26.97 -14.8,19.83 -5.66,77.76 -101.51,313.62 -151.48,387.05 -121.83,397.16 -316.43,742.59 -255.9,1266.49 9.83,85.05 19.93,143.28 46.48,223.87 26.43,80.24 52.97,117.62 111.66,173.16 -8.85,-92.82 -20.49,-135.06 -11.68,-242.17l48.69 152.76c28.76,-37.35 29.73,50.31 13.37,-130.74 -10.85,-120 -11.94,-345.26 58.58,-438.13 3.81,174.97 8.85,351.36 0.03,526.71 -17.16,341.16 -297.71,883.82 -244.52,1265.05 8.78,62.9 21.51,47.94 33.81,104.17 -66.35,-77.5 -85.83,-90.24 -142.06,-185.05 -56.37,-95.04 -78.1,-127.63 -111.16,-229.86l-132.71 -450.87c-25.93,-76.73 -0.13,-25.28 -38.03,-57.43 -17,69.05 -6.74,112.96 10.6,177.33 22.76,71.55 33.49,132.17 51.36,204.47 26.7,108.11 30.09,98.64 19.08,198.84 31.81,7.07 15.34,15.11 24.13,77.65l13.82 41.38 -18.68 -47.37c-29.93,0 -18.74,6.18 -23.54,-29.45 -218.94,-287.91 -317.64,-812.1 -327.08,-1175.79 -6.48,-249.57 19.95,-424.34 65.38,-668.6 26.78,-143.96 91.64,-441.52 167.74,-549.01 9.09,-76.58 48.04,-192.88 97.91,-240.71 6.9,-113.86 135.29,-331.75 197.06,-437.84 39.19,-67.32 201.79,-368.79 234.42,-384.05 -17.53,-49.59 -25.35,-11.1 -71.18,47.9 -23.32,30.02 -47.09,59.66 -67.55,94.34 -27.35,46.38 -89.76,149.49 -128.12,192.77 -58.52,66.01 -92.72,97.43 -144.51,174.52 -59.91,89.16 -105.25,175.92 -142.03,177.84 13.24,39.81 23.61,32.5 -15.09,32.5l-195.03 541.08c-98.58,-266.54 419.35,-1172.26 610.4,-1243.14 6.39,-37.53 -4.89,-31.26 30.65,-23.46 1.09,-28.74 -19.73,-17.65 31.19,-24.33 -10.14,-28.7 -15.62,-25.31 12.78,-13.93 0,-31.66 -6.3,-22.42 28.22,-15.34 -3.29,-22.67 -8.09,-17.76 14.64,-14.49 -7.4,-34.92 -14.74,-28.65 19.8,-21 17.42,-24.58 -11.54,-15.54 53.77,-34.46 -4.76,-28.59 -9.65,-18.27 21.15,-26.66l-0.06 3.33c188.32,-193.17 1036.88,-610.1 1313,-620.24 -2.72,-36.88 -47.04,-28.06 40.88,-20.76l134.14 -31.12c-38.24,-43.07 39.1,-23.69 -49.01,-37.34 -77.4,35.93 -277.66,74.1 -367.26,93.82 -71.25,15.68 -133.95,15.8 -204.88,30.9 -80.84,17.22 -122.48,37.73 -207.54,42.49l-117.58 24.54c-26.1,29.19 -30.03,24.5 -78.63,46.09l-63.67 41.42c-1.28,-2.98 -4.14,7.36 -6.21,11.04 62.05,54.5 54.22,43.37 125.34,-3 -21.67,0.84 -84.04,71.16 -174.96,78.6 6.82,33.99 13.09,23.99 -22.76,26.99 -4.29,5.25 -150.76,102.57 -173.73,117.65 -54.55,35.8 -129.91,84.72 -173.1,128.58l-18.58 8.74 -105.41 81.92c18.65,-41.41 64.57,-75.63 106.03,-89.74 -10.72,-36.18 -18.52,-28.09 18.06,-28.09 46.19,-67.34 276.84,-232.82 376.96,-239.82 45.92,-42.58 18.14,0.28 54.52,-57.76 -127.68,-80.06 75.56,9.85 -32.8,-15.82 -127.17,-30.11 -436.45,262.76 -532.92,330.87l9.63 12.12 -19.06 15.69 -17.56 7.39 -76.71 63.82 145.74 -154.87 21.56 -33.63 37.39 -42.07c162.41,-222.41 654.5,-370.68 814.79,-446.41 448.26,-211.81 1148.27,-240.27 1647.96,-147.4 90.99,16.92 175.85,31.95 266.88,52.73 71.68,16.37 177.68,50.49 240.8,60.99 92.93,15.47 420.46,-48.92 561.48,-43.63 129.71,4.86 402.3,45.05 517.66,90.49 59.49,23.04 104.34,24.97 137.97,59.25l22.36 -3.44 79.35 40c62.75,-12.15 32.21,-12.66 34.07,13.66 46.74,14.61 80.92,15.7 108.44,39.46 107.52,16.07 198.4,111.01 330.45,130.46 -22.29,-42.13 -82.5,-65.03 -132.33,-93.99 -80.72,-46.92 -50.97,-47.25 -109,-108.99 -71.36,-75.94 -126.15,-191.88 -151.71,-294.27 -37.79,-36.56 -40.56,-69.54 -42.23,-119.84l-51.01 -81.01c39.3,17.74 48.68,44.63 56.92,93.79 28.69,7.71 113.78,107.16 147,139.66 47.03,46.02 124.87,89.8 157.58,132.15l63.7 -4.51 9.52 46.86c71.53,6.23 56.54,14.95 122.73,47.17l53.45 22.25c105.24,53.31 84.53,98.33 134.96,198.35 -48,35 -172.83,110.81 -198.92,29.22l-59.66 0.93 16.73 32.25 51.67 41.27 149.93 74.23c103.85,57.18 258.85,233.74 332.19,317.38 130.7,149.04 212.23,337.1 356.89,493.12 32.9,21.83 10.3,-17.91 54.47,42.06 12.38,-42.13 4.32,-11.28 -19.47,-80.96 49.39,-43.95 133.29,-96.81 188.76,-93.81 32.98,58.64 16.02,10.04 15.58,70.39 30.03,-9.54 18.3,-12.21 24.61,23.96 10.88,62.43 -23.64,107.8 -60.04,160.99 3.32,3.68 8.26,4.05 9.96,11.03l30.34 36.39c2.51,3.11 6.83,8.74 10.25,13.11l30.18 -143.7c87.55,28.09 125.77,123.75 139.5,207.06 27.28,165.53 -13.11,144.29 -29.54,299.11 43.45,-3.21 0.9,17.53 55.47,-26.71 1.7,-1.37 4.89,-6.13 7.91,-8.57 -6.89,-62.12 -11.64,-35.45 16.75,-36.89 -4.61,-60.74 -11.89,-32.31 18.7,-40.9 -0.51,-67.49 -4.52,-50.34 30.38,-107.6 25.67,62.08 28.57,115.11 23.64,188.42l-37.83 36.29c-5.89,30.44 3.67,25.3 -24.71,20.92 4.74,33.22 14.49,31.17 -15.3,21.17 9.12,30.73 13.28,23.2 -18.8,16.57 7.24,30.21 13.22,24.63 -16.95,17.73 -21.52,79.13 -19.59,74.92 -58.56,99.09 18.43,-65.37 32.26,-42.25 48.21,-144.62 -66.9,-30.29 -6.25,-8.57 -73.65,-6.65 -33.35,-103.81 -71.12,-303.77 -155.84,-364.12 22.22,82.81 41.24,47.91 61.75,160.11 42.85,234.56 96.14,242.92 114.64,500.07 24.71,343.56 12.86,505.95 -61.85,830.31 -132.65,575.96 -246.04,742.79 -576.33,1263.58 -39.05,-18.07 -80.92,-31.21 -109.74,-45.03 22.43,-47.84 65.3,-103.75 108.5,-123.37l-22.45 86.66c33.87,-29.64 70.55,-92 87.6,-148.59l49.58 -110.01c32.78,-77.1 1.63,-28.89 -3.86,-40.43 -22.71,37.11 -234.82,331.63 -287.25,333.94 -101.67,4.47 44.53,-82.81 -302.8,-92.34zm916.69 -2719.26c-36.33,0 -28.21,7.78 -17.11,-28.43 -35.54,10.75 -30.72,17.71 -18.21,-17.21 -43.37,-13.85 -48.62,-5.26 -66.44,-6.03 18.55,83.75 -10.57,-2.38 51.37,73.81 90.5,111.32 56.26,100.37 81.41,48.06l-31.03 -70.2zm-6450.44 1342.62c-3.65,193.09 -42.23,237.58 -14.88,459.32 12.12,98.27 71.88,356.46 68.02,431.54l32.57 38.65c1.73,2 6,6.76 9,10.13 42.23,-60.45 33.11,-12.88 -2.34,-219.52 -16.63,-96.95 -15.56,-164.75 -20.94,-264.72 -10.74,-199.27 4.8,-387.28 5.75,-583.67 -48.5,37.8 -19.95,-23.76 -55.31,68.65 -27.89,72.87 24.16,7.09 -21.88,59.62zm5555.74 1232.51c0,-33.66 -7.89,-27.1 24.93,-18.08 -9.09,-30.34 -12.88,-22.52 19.04,-16.08 -6.84,-29.74 -12.55,-23.85 17.35,-17.48 -6.95,-35.76 -16.12,-32.4 17.39,-20.91 -9.26,-27.71 -11.24,-18.82 19.4,-13.96 -5.81,-29.9 -12.21,-24.45 17.28,-18.31 -6.27,-32.15 -14.06,-28.01 16.62,-19.38 -7.9,-32.53 -15.15,-28.11 16.48,-18.57 24.77,-78.87 68.01,-64.71 79.13,-153.87 -67.24,17.45 -12.46,0.74 -76.38,57.43 -12.94,61.35 -116.6,163.13 -181.26,182.47l-14 37.69 44.04 19.02zm377.75 -608.32c10.68,32.3 15.94,23.69 -18.68,23.69l4.99 3.57c-2.63,34.39 6.7,27.54 -26.84,21.96 3.93,27.38 9.76,21.67 -17.55,17.1 4.31,27.26 9.94,21.27 -17.55,17.35 4.46,29.3 11.46,24.46 -16.72,18.87 -1.43,30.49 24.74,23.24 -34.45,19.28 7.4,33.55 14.81,28.7 -17.72,19.2 8.55,29.44 11.89,21.18 -19.58,15.52 -16.61,26.8 10.32,5.61 -41.92,44.47 -18.07,13.44 -35.74,23.05 -54.84,34.5 -41.93,25.15 -77.44,48.13 -121.08,74.27l-55.06 70.67c115.1,-1.73 105.68,-97.67 257.93,-97.75 -18.17,-35.37 -16.97,-20.53 28.52,-22.91l-9.24 -2.05 39.26 -9.4c-60.93,64.04 -40.03,20.68 -10.73,65.34 36.18,-81.14 114.75,-168.3 165.14,-265.73l-33.9 -47.92zm-5940.79 -1407.36c-14.15,-95.49 63.73,-218.63 102.1,-304.18l-102.1 304.18zm6778.31 -371.43c-13.55,-147.73 34.3,-216.31 10.03,-383.66 -92.91,-69.8 -151.58,-65.87 -213.62,-107.36 33.63,-42.87 73.41,-24.24 186.31,70.19 35.85,29.97 112.46,170.76 129.34,207.44 -51.62,68.86 -28.15,15.22 -56.77,110.7 -12.26,40.93 -25.53,87.13 -55.3,102.7zm-471.28 -602.84l-42.8 141.8c-121.5,-94.41 -199.46,-269.62 -197.61,-421.58 67.65,-50.52 52.52,-61.17 145.52,-64.54 7.83,-32.91 26.35,-18.06 70.57,-14.13l0 -38.49c-28.21,0 -19.88,5.8 -15.25,-25.28l-15.35 -16.45c-44.43,31.87 -47.18,35.36 -99.42,53.41 -45.56,15.74 -205.59,90.18 -247.74,83.96 -66.06,-33.99 -17.56,-5.23 -33.93,-41.09 -28.15,15.31 -18.11,15.51 -18.11,-18.48 -30.51,5.9 -23.26,10.75 -15.41,-20.25 -14.92,-10.97 -16.29,29.66 -30.37,-82.1 -51.06,43.53 -3.8,29.97 -57.31,26.45l-37.86 -49.79c-32.69,11.99 -23.74,14.96 -16.56,-19.95 -33.86,7.45 -31.26,16.41 -19.78,-15.42 -35.13,10.91 -27.25,18.39 -27.25,-17.34l-35.14 -9.25c49.66,-48.97 66.66,-57.5 134.14,-60.5l9.57 -18.87 1.56 20.79 82.75 6.72 2.37 75.33c4.17,-4.21 22.59,-16.8 25.55,-18.83l27.96 -15.41c48.98,-51.41 67.15,-67.19 142.68,-75.08 41.79,1.9 37.8,-10.32 25.87,26.26 30.51,-9.01 22.77,-12.77 15.52,19.01 29.8,-7.18 22.25,-11.64 16.55,19.51 25.66,-4.36 21.17,-10.31 16.61,14.66 36.08,-8.64 29.57,-15.81 20.94,20.09 53.93,32.77 14.03,5.41 47.7,81.33l52.59 -58.46 0.18 5.51c136.32,6.48 96.85,42.31 159.77,-4.93 -167.57,-66.73 -99.64,-17.93 -243.76,-132.13 -86.03,-68.17 -34.32,-11.63 -85.7,-90.67 -41.42,-63.72 -42.36,-11.48 -98.31,-88.78 -98.74,-13.32 -255.14,-140.09 -320.02,-212.49l-56.52 -60.87c-29.75,5.3 -24.6,12.09 -18.89,-16.92 -33.63,-16.13 -4.39,33.55 -35.63,-40.47l28.91 46.67 11.05 -3.43 64.57 72.41 50.06 -18.09c0.92,61.01 324.81,191.59 401.96,228.99 104.45,29.35 213.9,38.33 310.55,93.64 88.63,50.72 32.52,36.09 82.45,111.84 35.37,53.65 48.15,60.71 42.45,134.99 -59.56,-22.6 -73.18,-19.4 -130.32,-6.28l56.51 44.11 52.56 -8.85 4.56 24.1c88.77,23.3 29.8,-11 58.28,74.41l94.73 -12.99c-27.7,-38.68 -15.24,-16.48 -31.17,-69.12l-34.96 -24.5 -28.95 -118.02 -9.37 -15.28c57.55,-75.6 116.59,-244.16 210.14,-260.37 0,-37.7 -9.2,-32.23 25.65,-19.17l55.76 -58.39c-95.3,126.25 -161.81,432.37 -86.41,584.64l-67.31 -37.12 -51.38 52.12c28.52,-3.41 23.31,-11.24 23.31,14.23l10.78 -3.67c105.86,48.26 104.96,76.74 177.11,152.26 21.56,22.56 62.39,61.79 79.17,81.88 34.33,41.11 22.67,46.07 66.97,93.33 327.22,349.04 171.77,162.28 351.65,271.86 -13.94,19.89 9.58,9.36 -20.04,21.27 -102.49,41.2 -287.5,-88.15 -364.85,-151.6 -90.2,-74.01 -46.92,-39.01 -113.96,-37.51 -31.43,-40.83 -31.78,-47.93 -86.98,-65.32l-80.33 -99.87c-32.68,7.06 -35.76,33.37 -26.72,-3.73l-61.42 -11.27 -6.14 41.87c65.03,-19.36 151.9,112.53 161.7,145.37 -33.08,-16.09 -110.63,-59.21 -138.78,-77.57 -66.35,-43.29 -85.7,-72.58 -168.95,-68.19l-64.22 9.74 9.07 34.01c76.04,-9.15 86.75,-33.33 135.97,47.67 -29.18,47.37 -16.07,10.97 -33.23,79.93 -88.76,-14.83 -155.68,75.59 -217.85,90.24 63.91,-211.93 1.2,-117.89 100.45,-223.45l-72.7 -4.13zm268.31 211.69c10.12,-8.47 -40.96,-58.07 76.09,-15.47 143.5,52.24 114.95,188.98 63.18,257.27 -25.67,-88.69 -54.54,-198.16 -139.26,-241.8zm-6090.99 -443.75c0.06,10.22 -20.27,28.32 -14.3,4.45 5.32,-21.28 14.19,-22.03 14.3,-4.45zm5468.38 -32.81l48.94 -12.74 -4.03 69.68 -44.91 -56.94z"/>
   <path class="fil2" d="M13756.06 5440.82c30.16,6.9 24.19,12.49 16.95,-17.73 32.07,6.63 27.91,14.17 18.8,-16.57 29.78,10.01 20.04,12.06 15.3,-21.17 28.37,4.38 18.82,9.53 24.71,-20.92 -35.15,0 -30.57,-10.22 -24.71,20.92 -30.64,-4.37 -23.51,-9.7 -15.3,21.17 -31.6,-8.4 -26.28,-14.93 -18.8,16.57 -31.01,-6.94 -25.42,-12.89 -16.95,17.73l24.12 -115.7c20.64,-16.32 33.48,36.13 16.75,-36.89 24,-16.86 31.38,36.87 18.7,-40.9 -30.58,8.59 -23.31,-19.84 -18.7,40.9 -28.38,1.44 -23.64,-25.23 -16.75,36.89 -3.02,2.44 -6.21,7.2 -7.91,8.57 -54.57,44.24 -12.02,23.51 -55.47,26.71 16.44,-154.82 56.83,-133.58 29.54,-299.11 -13.74,-83.31 -51.95,-178.96 -139.5,-207.06l-30.18 143.7c-3.42,-4.37 -7.74,-10 -10.25,-13.11l-30.34 -36.39c-1.7,-6.98 -6.64,-7.35 -9.96,-11.03l-4.36 52.96c-25.16,52.31 9.09,63.26 -81.41,-48.06 -61.94,-76.19 -32.82,9.95 -51.37,-73.81 17.82,0.77 23.07,-7.82 66.44,6.03 -12.52,34.91 -17.34,27.95 18.21,17.21 -11.11,36.21 -19.23,28.43 17.11,28.43 11.3,-43.93 24.4,-41.34 -17.11,-28.43 11.83,-35.3 17.18,-28.84 -18.21,-17.21l13.59 -62.65 82.01 -62.13 10.54 2.71c-11.46,35.32 -15.35,23.96 24.61,23.96 -6.31,-36.16 5.43,-33.49 -24.61,-23.96 0.44,-60.35 17.41,-11.75 -15.58,-70.39 -55.47,-3 -139.37,49.86 -188.76,93.81 23.79,69.69 31.84,38.83 19.47,80.96 -44.17,-59.97 -21.57,-20.24 -54.47,-42.06l-22.64 15.87c-1.56,-7.18 -10.37,-6.25 -14.78,-10.33l1.08 62.98 -4.14 36.23 12.9 -39.17c-81.74,64.42 -17.01,30.62 -64.2,107.69 -33.26,54.33 -41.12,30.89 -68.73,100.61 -8.3,26.68 -22.9,264.04 -89.05,275.77l63.41 -145.61c-1.92,-30.46 -26.25,-50.14 -45.43,-68.14 -106.9,248.54 -241.81,322.1 -378.55,458.69 -24.43,24.41 -47.08,46.12 -70.76,71.21l-67.3 74.03 65.45 -18.75c9.69,105.73 -183.75,284.27 -262.29,346.89l40.08 12.05 -41.45 71.62c57.28,-1.33 19.3,45.02 116.63,-52.4 -1.14,-1.99 -45.04,-113.56 -43.57,-17.01l66.01 -79.72c-72.71,29.14 -28.03,38.69 -26.94,62.65 64.61,-3.79 147.72,-74.63 181.07,-127.72 -4.87,-2.53 -49.41,-72.64 -95.14,3.11 11.61,2.93 -21.78,37.68 38.81,-13.47l289.63 -303.73c2.51,-2.73 7.05,-5.94 9.52,-8.6 31.56,-33.86 42.22,-11.58 23.01,-51.48 -12.74,25.09 -21.01,53.45 -36.5,79.44 -137.78,231.12 -102.45,139.41 -271.65,327.78 -55.85,62.17 -37.84,19.56 -90.6,68.09 -62.17,57.18 -55.43,120.53 -165.16,133.58l-28.47 68.02 99.23 -4.06 19.93 -19.06c-38.79,-19.94 -24.01,-19.59 -24.01,27.88 37.45,-6.45 33.05,5.28 24.01,-27.88 62.01,-11.22 61.3,-42.57 129.01,-85.9 40.85,-26.14 118.97,-39.83 131.03,-80.22 29.22,22.66 84.85,-48.11 134.67,-100.52 59.62,-62.74 28.02,-31.34 20.53,-48.7 -20.04,16.76 -13.55,17.76 -26.97,49.37 -22.02,51.84 -3.47,26.04 -44.28,69.48l68.5 5.96c-44.59,189.22 -374.6,544.7 -526.66,665.05 50.03,28.27 161.81,-97.49 246.62,-114.04 -25.6,67.42 -25.42,21.83 -56.86,84.82 98,-0.77 79.95,-58.94 182.8,-88.89 -30.31,89.78 -106.58,189.94 -164.71,271.41 -31,43.47 -42.51,36.05 -77.4,82.53l60.28 -8.38 -11.98 43.4 12.58 -4.59c34.67,-77.48 40.6,-67.47 122.52,-81.67 -19.83,74.5 -43.43,116.48 -124.86,106.84 -28.58,14.13 -21.52,-3.95 -54.08,37.7 -27.08,34.64 -18.07,25.86 -27.27,61.87 -35.17,-7.44 -23.57,-12.31 -23.57,27.52 37.13,-4.39 31.7,6.54 23.57,-27.52 75.81,-20.19 223.81,-153.48 289.44,-208.36 74.49,-62.3 203.76,-217.21 261.28,-246.71 -7.77,64.62 -6.12,72.72 -45.06,58.23 24.38,95.68 -156.02,277.19 -159.52,279.68 -48.28,13.92 -4.4,14.12 -35.85,-30.32 -71.45,60.88 -133.83,156.23 -173.53,246.87 43.63,-26.13 79.14,-49.12 121.08,-74.27 19.1,-11.46 36.77,-21.07 54.84,-34.5 52.24,-38.86 25.32,-17.67 41.92,-44.47 31.46,5.66 28.12,13.93 19.58,-15.52 32.52,9.51 25.12,14.36 17.72,-19.2 59.19,3.96 33.02,11.22 34.45,-19.28 28.17,5.59 21.18,10.44 16.72,-18.87 27.48,3.92 21.86,9.92 17.55,-17.35 27.3,4.57 21.48,10.29 17.55,-17.1 33.54,5.59 24.22,12.44 26.84,-21.96 -36.63,0 -31.2,-10.61 -26.84,21.96 -27.82,-5.56 -21.8,-11.07 -17.55,17.1 -27.91,-4.56 -22.2,-10.47 -17.55,17.35 -28.77,-4 -22.73,-9.86 -16.72,18.87 -75.06,-11.48 -19.16,-3.26 -34.45,19.28 -32.03,-7.45 -25.36,-13.1 -17.72,19.2 -30.58,-8.87 -25.2,-15.34 -19.58,15.52l-44.08 23.89c69.48,-29.72 127.27,-56.33 83.73,-127.25 101.03,59.7 391.76,-404.08 419.02,-459.3 18.28,-37.01 33.71,-73.76 50.65,-111.17 27.07,-59.8 35.99,-62.02 56.46,-132.34 -110.62,15.84 -105.59,43.72 -182.42,120.23l-95.59 102.02c-24.84,37.18 -16.88,-2.83 -7,27.14 37.26,-38.39 29.2,-43.07 76.35,-82.77l294.73 -322.55c-17.54,4.01 -13.05,-20.55 -9.11,16.9 -18.12,22.48 -30.85,-27.63 -18.13,56.47l20.66 -5.04 -2.53 -51.43c45.08,-34.45 8.64,-50.89 63.23,-117.86 11.62,15.34 37.25,-3.47 10.08,98.28 -6.86,25.69 -19.92,69.54 -21.51,83.3 -6.24,53.77 -31.17,131.66 -32.95,203.08l-56.44 31.03c50.2,43.61 16.9,-3.59 31.19,54.14 -7.07,74.38 -267.72,734.06 -395.29,805.63 0.82,-3.3 367.23,-714.47 349.14,-814.28 -78.25,110.67 -190.3,291.74 -292.53,382.24 -30.11,26.66 4.34,4.72 -40.94,25.53 23.37,-95.79 83.31,-51.89 118.67,-216.12 28.77,5.37 23.29,11.31 17.08,-17.19 29.51,-1.47 21.42,23.56 19.24,-34.87 32.04,7.88 21.57,12.51 24.24,-23.26 -37.66,0 -33.05,-10.6 -24.24,23.26 -22.59,15.26 -32.42,-40.07 -19.24,34.87 -29.71,-6.2 -24.29,-12.19 -17.08,17.19 -79.39,34.2 -74.17,64.57 -111.55,129.53 -36.39,63.26 -74.61,37.29 -99.74,124.18 -37.58,-12.27 -27.32,-16.04 -18.68,23.69 34.61,0 29.35,8.62 18.68,-23.69l33.9 47.92c-50.39,97.43 -128.95,184.58 -165.14,265.73 -29.3,-44.66 -50.2,-1.3 10.73,-65.34l-39.26 9.4c-34.22,65.89 -39.16,23.25 -66.76,111.43 63.92,-56.69 9.14,-39.98 76.38,-57.43 -11.13,89.16 -54.37,75 -79.13,153.87 -31.62,-9.55 -24.38,-13.97 -16.48,18.57 -30.67,-8.64 -22.89,-12.78 -16.62,19.38 -29.48,-6.14 -23.09,-11.6 -17.28,18.31 -30.63,-4.86 -28.65,-13.76 -19.4,13.96 -33.5,-11.5 -24.34,-14.86 -17.39,20.91 -29.89,-6.37 -24.19,-12.27 -17.35,17.48 -31.91,-6.44 -28.12,-14.27 -19.04,16.08 -32.81,-9.03 -24.93,-15.59 -24.93,18.08 38.55,8.14 34.29,18.38 24.93,-18.08 31.36,8.91 26.06,15.41 19.04,-16.08 30.46,6.81 24.83,12.78 17.35,-17.48 32.52,6.66 25.12,12.11 17.39,-20.91 30.31,10.03 25.63,16.8 19.4,-13.96 29.79,5.39 23.87,11.34 17.28,-18.31 31.15,6.18 24.66,11.75 16.62,-19.38 32.56,8.26 26.3,13.74 16.48,-18.57 64.89,7.64 182.47,-141.03 261.68,-219.87 15.54,-15.46 33.49,-31.37 43.9,-49.63 40.21,-70.53 7.58,-40.2 4.93,-44.31 -44.73,166.34 -243.91,277.57 -302.83,422.1l72.12 -13.01c-37.88,146.94 -80.7,103.9 -183.93,153.11 -25.29,17.29 -6.96,-1.51 -25.49,9.54 -15.6,9.31 -24.95,15.94 -40.83,28.94 347.33,9.53 201.13,96.81 302.8,92.34 52.43,-2.31 264.55,-296.83 287.25,-333.94 5.49,11.54 36.64,-36.67 3.86,40.43l-49.58 110.01c-17.06,56.59 -53.73,118.95 -87.6,148.59l22.45 -86.66c-43.2,19.62 -86.07,75.53 -108.5,123.37 28.81,13.82 70.69,26.96 109.74,45.03 330.29,-520.79 443.67,-687.63 576.33,-1263.58 74.71,-324.36 86.55,-486.74 61.85,-830.31 -18.5,-257.15 -71.79,-265.51 -114.64,-500.07 -20.51,-112.2 -39.53,-77.29 -61.75,-160.11 84.72,60.35 122.49,260.31 155.84,364.12 67.4,-1.92 6.75,-23.65 73.65,6.65 -15.95,102.37 -29.78,79.25 -48.21,144.62 38.97,-24.18 37.04,-19.96 58.56,-99.09zm-961.35 1728.82l28.52 -22.91c-45.49,2.38 -46.69,-12.47 -28.52,22.91zm488.54 -682.94c-45.8,15.62 -36.37,30.2 -42.82,67.07l41.85 -0.33 0.97 -66.74zm-756.03 325.63c-32.28,-6.59 -26.61,-13.15 -18.2,18.55 -32.42,-7.71 -25.98,-13.61 -18.08,18.93 -31.24,-8.97 -25.87,-15.06 -18,16.31 -37.25,-8.4 -25.28,-11.75 -15.07,28.03 31.36,0 22.17,6.2 15.07,-28.03 30.86,6.85 26.3,13.7 18,-16.31 33.13,9.31 26.25,14.77 18.08,-18.93 32.93,7.6 27.09,13.99 18.2,-18.55 40.25,19.32 28.75,22.77 25.44,-22.8 -39.16,0 -35.4,-11.46 -25.44,22.8zm-130.08 -68.57c22.17,31.82 -16.71,38.81 37.4,14.68 -3.65,1.16 -21.71,-21.91 -55.52,36.82l83.13 4.42 5.09 -61.59c62.91,-15.69 62.21,-38.88 68.29,-52.83l-138.39 58.5zm-83.81 2.66l19.51 0.54c-0.35,28.66 -6.49,18.35 25.26,25.33l32.23 -36 -57.49 10.68 -0.88 -29.25 -18.63 28.71zm207.87 -259.72c-48.88,17.22 -44.64,21.01 -65.48,60.83 -32.89,-10.05 -26.75,-15.13 -15.96,17.62 -33.84,-9.12 -28.49,-16.12 -19.51,17.44 -32.73,-9.16 -26.55,-14.85 -17.6,18.02 -30.59,-7.48 -24.6,-13.41 -18.35,17.41 -36.28,-9.98 -24.05,-14.07 -24.05,27.5 35.89,-6.35 30.8,4.9 24.05,-27.5 32.93,8.67 27.53,15.2 18.35,-17.41 32.05,7.48 26.35,13.65 17.6,-18.02 35.34,8.68 31.08,16.65 19.51,-17.44 30.98,9.72 24.19,14.11 15.96,-17.62l37.17 -12.81 28.3 -48.02zm117.43 -142.51l-41.57 43.15 31.48 -4.68 10.09 -38.47zm47.47 -65.27c-30.32,-7.89 -24.4,-13.93 -18.99,16.75 -32.96,-7.43 -23.76,-10.88 -12.96,22.47 25.23,0 17.88,5.13 12.96,-22.47 31.04,6.32 26.2,13.41 18.99,-16.75 43.94,19.12 32.83,24.42 27.26,-23.8 -39.88,0 -34.97,-11.56 -27.26,23.8zm-235.07 17.21c40.68,10.65 37.4,20.46 21.63,-18.35 39.86,14.91 26.29,18.03 26.29,-28.18 -38.53,6.09 -33.42,-5.98 -26.29,28.18 -31.01,-14.11 -21.63,-17.04 -21.63,18.35zm53.49 -425.44l7.3 0.32 -18.06 36.41c-31.86,-11.3 -25.33,-17.21 -20.87,16.14 -30.81,-9.03 -25.63,-15.1 -17.79,15.84 -31.11,-6.49 -25.07,-12.94 -19.31,18.11 -31.67,-7.48 -23.97,-11.75 -14.74,20.31 -28.55,-1.22 -17.7,-6.18 -17.7,29.21 33.63,-5.75 27.42,3.8 17.7,-29.21 26.48,1.05 20.23,6.71 14.74,-20.31 32.61,6.78 27.2,13.82 19.31,-18.11 27.8,6.49 22.24,12.16 17.79,-15.84 36.41,8.48 33.96,18.17 20.87,-16.14 32.08,-14.64 37.21,-6.96 53.59,-52.6l-42.83 15.87zm398.09 373.93c24.61,-73.75 313.55,-513.25 324.02,-713.2l-61.92 126.53c-51.5,-83.65 42.21,-181.74 59.88,-244.69 29.27,-104.37 89.29,-398.78 134.04,-459.14 76.73,190.92 -211.72,1141.85 -456.02,1290.51z"/>
   <path class="fil2" d="M13989.81 6872.77c-11.95,32.97 -16.34,23.47 20.02,23.47 -2.67,-34.57 8.31,-32.48 -20.02,-23.47 -3.05,-35.02 -6.13,-55.94 -11.65,-88 133.99,-7.72 82.7,78.55 166.76,161.32 106.77,105.13 371.59,383.99 488.49,419.5 -9.1,33.12 -15.1,26.95 18.17,18.31 -9.47,31.91 -13.01,23.02 21,16.54 1.14,32.68 -19.56,21.57 32.75,19.75 -8.53,30.73 -13.15,23.79 18.36,16.4 -7.86,34.58 -13.7,23.57 23.42,28.84 0,-41.76 12.56,-37.67 -23.42,-28.84 7.59,-31.86 13.17,-25.82 -18.36,-16.4 -13.8,-22.36 39.7,-34.96 -32.75,-19.75 4.5,-31.68 10.47,-24.98 -21,-16.54 8.64,-32.53 14.56,-26.3 -18.17,-18.31 -4.04,-70.02 -114.64,-203.66 -165.27,-291.93 -34.44,-60.05 -33.25,-41.28 -59.25,-78.25 -63.08,-89.71 -238.41,-491.31 -266.51,-618.79 -21.97,-99.62 -47.82,-148.03 -72.7,-235.23 -40.56,-142.13 -69.21,-380.89 -71.55,-527.54l-62.22 -297.75c-33.5,36.29 -59.65,120.58 -94.01,174.72 -43.96,69.24 -67.65,84.36 -115.67,138.06 73.61,531.36 41.05,553.14 -32.4,1016.57 -33.04,208.45 -324.74,782.56 -201.18,849.43 9.44,-47.88 23.34,-33.59 -5.61,-64.22 -10.91,70.71 72.81,378.03 99.8,456.92 23.22,67.83 59,131.69 91.75,196.37 67.91,134.12 164.15,410.92 284.87,572.75 49.05,65.75 200.25,276.5 213.76,341.54l712.37 -0.95c-28.6,-103.17 -190.61,-227.06 -327.99,-553.57 -104.99,-249.53 -177.35,-297.59 -242.05,-620.99 -70.92,-115.85 -105.07,-331.17 -152.99,-396.23 4,80.06 6.93,47.43 38.39,75.41l-81.36 -231.39c-44.98,48.45 -20.66,-47.97 -37.24,71.83l55.38 443.99c-1.92,192.51 66.37,370.11 71.13,463.93 19.04,-18.97 26.81,33.89 1.58,-61.7 -12.53,-47.47 -19.41,-43.82 -30.06,-78.42 -15.43,-50.06 -15.94,-117.69 -37.61,-178.33 -59.99,-167.87 -92.59,-330.47 -116.13,-502.39 -6.88,-50.2 -28.02,-129.24 -31.87,-178.6 -4.57,-58.64 18.55,-354.18 -8.97,-378.04z"/>
   <path class="fil2" d="M7762.91 5221.95l-27.09 39.9c75.19,-57.51 -9.57,-73.87 -9.67,-74 -72.11,80.65 -313.3,459.07 -327.95,598.87 -4.34,41.34 -7.81,0.74 9.71,23.07 0,-92 29.75,-154.11 56.9,-238.14 30.13,-93.31 48.56,-179.06 49.99,-278.46 -65.58,45.66 -29.88,-4.81 -67.48,69.64 -2.58,5.1 -9.1,31.7 -16.04,50.05l-109.75 319.2c-10.31,34.64 -19.41,72.47 -34.83,104.41 -71.98,149.03 -7.7,101.59 -62.15,226.39 -46.37,106.29 -23.81,71.09 -12.59,85.37l28.08 -339.66c78.87,-434.75 79.87,-257.2 7.72,-319.44 -24.66,62.17 -62.81,133.81 -75.72,184.73l-93.4 401.93c-22.02,59.45 -47.22,120.38 -38.37,186.98 46.03,-52.53 -6.02,13.25 21.88,-59.62 35.36,-92.4 6.81,-30.84 55.31,-68.65 -0.95,196.38 -16.49,384.39 -5.75,583.67 5.38,99.97 4.31,167.77 20.94,264.72 35.45,206.64 44.57,159.07 2.34,219.52 -3,-3.37 -7.27,-8.13 -9,-10.13l-32.57 -38.65c-1.39,38.36 6.56,72.8 11.6,118.41 7.51,67.92 -2.36,60.44 45.04,105.15 -17.34,-64.37 -27.59,-108.28 -10.6,-177.33 37.9,32.15 12.1,-19.31 38.03,57.43l132.71 450.87c33.05,102.23 54.79,134.82 111.16,229.86 56.23,94.81 75.72,107.55 142.06,185.05 -12.31,-56.23 -25.04,-41.27 -33.81,-104.17 -53.19,-381.24 227.37,-923.89 244.52,-1265.05 8.82,-175.35 3.78,-351.74 -0.03,-526.71 -70.52,92.87 -69.43,318.14 -58.58,438.13 16.37,181.05 15.4,93.39 -13.37,130.74l-48.69 -152.76c-8.81,107.11 2.83,149.35 11.68,242.17 -58.69,-55.54 -85.22,-92.91 -111.66,-173.16 -26.55,-80.58 -36.65,-138.81 -46.48,-223.87 -60.53,-523.9 134.07,-869.33 255.9,-1266.49z"/>
   <path class="fil1" d="M9424.71 6148.24l6.43 -4.49c-39.7,-43.41 -5.34,-23.76 -58.33,-72.23 -53.02,-48.51 -28.05,30.23 -37.36,-63.56 87.63,7.68 80.88,54.31 127.1,-17.05l14.4 61.99 41.12 -31.41 151.82 -131.29c-24.47,100.12 -103.39,225.8 -137.7,335.55 -35.32,112.98 -64.36,249.69 -78.84,367.83l16.91 48.84 30.93 -21.37c-21.43,-134.37 260.27,-533.16 385.18,-552.05 61.97,-73.04 79.4,-97.28 175.78,-109.17 194.44,-109.05 338.38,-120.57 615.69,-335.82 93.15,-72.31 184.11,-141 262,-219.77 33.53,-33.92 220.94,-248.36 230.02,-253.74 -28.37,-41.98 13.5,-34.73 -36.96,-34.6l-45.65 34.78c-95.85,161.74 -541.35,557.85 -749.4,606.46 -45.67,68.35 -216.8,143.22 -304.73,148.92 -37.69,41.73 -82.78,51.99 -148.92,59.28 -85.17,24.1 -347.39,396.2 -364.56,479.56 2.15,-145.53 190.43,-553.78 275.83,-708.05 25.41,-45.9 27.92,-25.6 59.88,-69.76l41.06 -115.68 34.46 -12.98 -5.39 -13.85c-33.2,-43.56 25.67,-38.06 -38.07,-33.04 -56.67,161.57 -295.18,338.94 -395.38,497.3 -62.17,-32.1 -148.02,-26.42 -196.74,-63.18 -50.13,8.36 -381.77,-42.43 -432.34,-62.28l-1.49 -62.39 -30.12 13.21 -3.46 -4.43 1.15 68.01c-69.31,-2.91 -149.19,-29.49 -227.41,-31.07l-7.69 -43.43c-47.47,0 -33.19,-10.38 -30.97,41.95l-101.05 0c1.47,-79.07 -6.36,-40.87 23.99,-43 -7.5,-66.47 -11.23,-33.73 19.24,-35.85 -10.11,-30.84 -14.21,-23.72 17.76,-16.14 2.34,-76.5 11.66,-31.23 37.62,-73.64l34.31 -70.53c-17.29,-137.97 42.74,-328.6 81.32,-456.75 35.07,-116.49 114.3,-289.72 134.42,-398.45 -85.24,36.79 -11.85,-18.24 -70.43,61.34 -0.68,41.21 11.41,33.85 -23.98,33.85l6.14 1.78c-1.83,40.63 10.45,33.75 -23.45,33.75l6.95 1.87c-33.18,135.57 -88.03,240.28 -112.22,373.29 -13.74,75.57 -28.44,110.06 -38.91,192.82 -10.05,79.45 -24.1,110.47 -69.82,163.23l6.81 1.02c-1.37,41.67 10.92,34.15 -24.95,34.15l-30.29 126.18 -8.4 59.9c-62.52,37.51 -170.94,24.17 -245.49,26.89l-7.52 37.67c-62.83,7.94 -71.63,5.24 -104.5,37.9 69.8,-5.06 94.12,-40.84 132.01,-12.63 -63.37,93.55 -243.3,108.73 -246.23,109.64 -74.2,23.12 -18.86,0.85 -52.7,32.95 89.78,51.38 104.11,-0.92 217.51,51.31l-80.18 41.49 71.43 34.89c-16.17,100.93 -62.67,257.06 -4.55,330.29l46.26 -162.65c29.03,-87.23 24.46,-104.23 71.96,-182.15l221.78 -5.51c-8.38,53.25 -90.36,362.94 -102.36,380.2l15.01 85.75c46.72,-42.91 51.79,-124.24 70.54,-224.85l72.07 -238.87c343.18,8.52 331.31,18.01 620.12,57.28 1.46,99.35 -23.19,123.61 -41.76,217.22 -80.2,252.57 -180.53,387.96 -427.65,497.38 42.04,30.54 35.02,50.7 171.75,-40.28 75.96,-50.54 74,-51.8 127.09,-123.35 48.42,-65.25 61.17,-67.96 103.37,-147.88 32.94,-62.37 38.86,-120.63 68.81,-185.87l55.06 -208.94c84.84,5.7 102.82,36.62 88.38,117.74l54.55 -29.02 -2.9 -40.09 39.67 -49.28 33.46 -35.68c18.5,-24.28 -39.5,-4.7 10.96,-10.45 44.82,-5.11 -59.73,46.12 44.61,1.87l-23.84 -48.79zm44.87 66.17l4.71 -1.28 -44.62 21.87c99.13,13.01 16.55,10.14 39.91,-20.59zm-1361.55 -155.32c-2.38,-20.28 21.15,-18.39 17.98,-1.25 -4.25,22.98 -16.87,10.72 -17.98,1.25zm469.63 -160.32c-0.08,-1.82 5.94,-16.92 10.63,2.3 5.07,20.77 -10.08,9.81 -10.63,-2.3z"/>
   <path class="fil1" d="M10572.5 6283.35l-7.48 -13.26c86.26,15.8 28.61,-8.86 81.27,13.54 -58.96,22.63 -22.53,-8.1 -43.2,52.52l53.4 -1.65c21.58,-19.03 -2.89,-10.47 22.15,-12.21 38.87,-2.68 16.74,12.94 17.87,15.21l-64.16 19.12 -54.88 31.97 92.39 -0.14c-14.11,48.85 19.93,40.95 -44.38,132.09 97.7,-19.12 80.9,-103.36 247.81,-98.85l-58.87 207.35c-9.17,43.79 -21.81,89.28 -31.85,135.18 -41.93,191.68 -7.92,148.61 18.1,174.54l36.28 -185.03 98.18 -327.98c391.12,-9.68 356.35,31.7 571.34,63.39 88.81,13.08 115.58,33.54 186.51,43.48 -3.45,80.57 -55,205.15 -110.4,249.93 -26.83,119.83 -115.14,224.04 -198.57,295.53 -158.97,136.2 -187.41,115.95 -376.43,142.6 0.44,0.36 -5.01,35.22 104.17,28.37 45.31,-2.85 84.9,-19.09 124.64,-34.55 71.83,-27.95 132.48,-63.75 189.3,-112.85 187.26,-161.83 154.24,-260.63 240.64,-347.93 28.44,-58.16 62.44,-172.18 105.91,-210.92 73.59,30.6 157.56,55.13 215.76,89 -41.05,69.05 -37.4,45.78 -66.58,127.35 -19.94,55.77 -38.22,92.36 -86.3,131.71l13.55 77.53c112.57,-87.47 169.25,-187.42 250.46,-297.2 43.91,-59.36 41.19,-65.9 110.4,-70.67l-44.95 -50.7 73.38 7.09 -58.17 -43.67 30.33 -41.69c-89.54,-60.35 -163.16,-93.52 -220.12,-137.08l135.07 26.06c-225.78,-113.23 -403.48,-208.87 -665.37,-230.14 -140.93,-11.45 -289.31,-82.22 -523.35,-64.19 -67.28,5.19 -137.8,13.99 -207.28,21.09 59.31,15.7 57.65,0.46 108.65,23.54 -86.96,80.45 -259.64,85.26 -347.35,143.83l82.12 28.68z"/>
   <path class="fil2" d="M12995.85 8989.52l486.48 8.72c-6.47,-109.75 -98.37,-384.1 -107.57,-605.41 -3.59,-86.59 13.49,-638.33 9.38,-647.77 -21.33,72.88 -23.61,58.99 23.93,95.31 -4.78,-51.43 7.15,-88.51 -23.93,-95.31 3.2,-76.04 -8.06,-156.04 -62.88,-211.47 -47.92,89.35 -112.69,212.75 -169.71,305.68 117.56,110.46 64.73,344.06 41.95,493.63 -30.97,203.4 -90.68,230.5 -201.02,362.28l3.36 294.34z"/>
   <path class="fil3" d="M9568.69 2399.11l222.07 58.38c56.82,-71.69 107.08,-258.08 143.52,-356.02 45.57,-122.46 110.35,-231.42 157.22,-349.68 -105.28,-79.99 -284.78,-138.17 -417.36,-183.14 -75.91,-25.74 -87.68,-46.18 -148.38,-72.7l42.93 903.16z"/>
   <path class="fil2" d="M7597.31 5926.12c-69.75,78.38 -43.78,405.54 -42.13,524.78 73.26,-13.67 60.76,23.45 66.5,-71.25 -25.29,19.54 -23.05,-4.67 -11.34,63.15l52.55 16.67c-80.15,-42.69 72.3,-342.27 99.88,-418.79 36.1,-100.15 76.6,-126.28 103.67,-200.96 24.4,-67.32 52.13,-140.75 124.25,-161.76 -39.28,-39.22 -40.94,26.16 43.63,-112.24 50.36,-82.4 9.46,-69.62 99.41,-107.26 -20.44,97.54 -144.67,205.2 -188.74,386.78 13.23,-15.35 22.66,-25.63 32.87,-40.91 55.55,-83.06 57.63,-144.65 140.03,-249.93 49.99,-63.87 191.48,-196.41 180.88,-225.76 -1.77,43.59 -5.04,24.15 -8.76,55.08 -12.43,103.2 4.99,88.19 -29.37,200.04 -45.34,147.62 35.03,162 -78.11,277.2 74.56,-2.73 182.97,10.62 245.49,-26.89l8.4 -59.9c-33.36,49.72 -24.14,-31.58 -29.04,55.97l-108.69 -2.54 80.04 -513.03 -24.42 40.71 -29.13 -69.27c-45.47,74.33 -49.48,75.48 -137.76,71.07 46.18,-190.73 114.25,-151.03 160.32,-295.46 -50.44,27.96 -6.87,9.54 -28.26,4.6l-26.33 -10.87c-163.73,-33.84 -436,528.29 -534.84,700.34 -60.03,104.51 -111.99,193.3 -133.42,304.99 26.26,-20.88 22.7,-48.48 30.76,-88.36 10.87,-53.68 12.41,-37.71 29.68,-89.62l43.23 -233.22c-44.14,34.78 -29.52,20.2 -49.55,45.98l-81.69 230.66zm518.73 -463.98c1.9,-33.16 -24.5,-32.17 21.88,-80.27 48.6,-50.41 26.41,-13.94 57.81,-20.82 -8.4,142.72 -68.61,98.05 -79.68,101.09z"/>
   <path class="fil2" d="M11839.13 3628.62c-33.63,-34.28 -78.48,-36.21 -137.97,-59.25 26.49,23.06 15.07,28.76 20.73,13.77 -61,-25.91 -643.85,-94.75 -636.81,-27.64 50.59,45.28 169.45,20.98 306.44,248.89 77.2,128.44 133.11,269.49 131.17,424.98l-45.33 -35.88 -6.6 76.43c32.68,-5.12 62.7,26.98 95.35,-64.35 16.29,-45.57 10.28,-72.07 10.17,-120.74l53.45 -20.94 20.91 -37.17c123.64,4.45 377.18,7.11 478.06,37.17l196.42 27.21c50.23,6.64 20.7,-22.66 27.52,14.52 56.25,12.82 101.5,13.75 146.05,18.81l41.97 8.22c119.57,-9.2 36.12,11.21 86.62,-50.77l-926.54 -142.85c-58.37,0.46 -99.79,14.8 -124.46,-17.47l-20.79 14.61c2.84,3.16 44.69,-39.38 124.76,-33.49 135.31,9.95 337.58,73.21 493.41,48.37 -58.08,-68.73 -258.75,-46.33 -369.55,-95.67 -69.9,-31.12 -31.93,-13.64 -43.98,-42.8 -28.97,-69.82 -119.28,-53.28 -216.36,-49.8l-77.11 -88.22c509.08,-14.34 291.37,64.67 572.77,68.7 -78.27,-107.76 -83.53,-65.62 -186.74,-127.55l-13.57 12.94zm244.22 89.68c-27.51,-23.77 -61.7,-24.86 -108.44,-39.46 49.72,38.97 46.93,44.92 108.44,39.46zm-142.51 -53.12l-79.35 -40c26.13,21.45 11.15,14.94 40.42,28.49 12.68,5.88 30.09,9 38.93,11.51z"/>
   <path class="fil1" d="M14907.6 7686.65c30.58,5.82 26.18,-3.94 21.22,23.48l44.57 -27.18 0.09 -70.98c-25.3,4.09 -19.45,9.03 -15.58,-16.77 -31.16,4.87 -28.94,14.01 -20.38,-14.13 -37.33,9.47 -35.04,19.52 -21.4,-15.94 -60.99,-4.26 -135.26,-57.93 -169.03,-99.72 -37.11,-5.28 -31.27,5.74 -23.42,-28.84 -31.5,7.39 -26.88,14.34 -18.36,-16.4 -52.31,1.82 -31.61,12.94 -32.75,-19.75 -34,6.48 -30.46,15.38 -21,-16.54 -33.26,8.65 -27.26,14.82 -18.17,-18.31 -116.91,-35.5 -381.73,-314.37 -488.49,-419.5 -84.05,-82.76 -32.76,-169.04 -166.76,-161.32 5.52,32.06 8.6,52.98 11.65,88 28.32,-9.02 17.35,-11.11 20.02,23.47 54.86,94.09 58.91,287.8 113.79,374.27l81.36 231.39c54.42,79.52 156.81,339.71 289.25,536.75 13.82,20.57 21.3,40.5 37.74,69.2 63,109.89 344.08,470.78 437.98,520.08 0.58,-154.45 -39.55,-113.88 -114.63,-218.2 -149.39,-207.6 -378.96,-486.58 -496.57,-751.04l-253.06 -657.89c47.98,25.87 132.99,138.6 188.09,188.44l206.73 168.27c56.74,49.85 129.04,129.56 194.12,178.72 68.8,51.98 162.41,84.82 212.96,150.42z"/>
   <path class="fil1" d="M8316.7 1481.91c-5.51,103.85 283.35,1035.8 345.55,1094.68 54.84,8.4 295.04,-36.99 343.14,-67.96 108.36,-69.74 157.95,-1036.83 105.31,-1161.21 -102.74,-23.34 -688.45,64.05 -777.74,116.98 105.48,86.58 417.88,-55.6 730.78,-54.75 9.02,137.89 -12.44,868.23 -70.2,999.15 -33.83,76.68 -207.38,85.54 -287.74,91.4l-190.96 -503.67c-30.07,-83.88 -128.92,-495.86 -198.14,-514.62z"/>
   <path class="fil2" d="M10836.95 6753.73c33.48,-37.54 63,-111.25 53.92,-74.31 101.17,35.89 267.76,30.2 380.97,38.52 9.65,0.71 310.64,64.43 310.75,64.61 55.4,-44.78 106.95,-169.36 110.4,-249.93 -70.94,-9.94 -97.7,-30.4 -186.51,-43.48 -214.99,-31.68 -180.21,-73.07 -571.34,-63.39l-98.18 327.98z"/>
   <path class="fil2" d="M9853.26 5293.19l-25.81 77.07c-66.22,-85.25 43.51,72.7 -15.95,-25.37 -28.75,-47.42 11.31,-0.28 -25.91,-48.86 -4.59,61.73 -4.79,13.92 3.54,65.84 0.71,4.4 6.31,16.08 6.26,26.6l-30.05 -9.47c-5.08,-0.41 -13.77,0.2 -15.29,-0.16 -0.35,-0.08 2.16,-1.7 1.96,-2.97 -1.09,-7.15 12.92,-3.54 19.23,-5.78 7.47,-52.3 20.48,-41.28 -29.13,-41.28 -3.49,43.54 8.82,32.34 -29.39,40.08 27.37,58.47 22.42,38.55 52.87,47.37 -62.18,108.87 -78.72,190.97 -170.48,282.54 -47.07,46.97 -207.74,184.9 -230.86,216.88l-68.96 9.98c48.72,36.75 134.57,31.07 196.74,63.18 100.2,-158.36 338.71,-335.73 395.38,-497.3 63.75,-5.02 4.87,-10.52 38.07,33.04l43.02 -26.95c1.46,-74.23 -29.29,-43.82 61.33,-187.65 57.78,-91.68 79.2,-91.23 85.76,-212.75 -70.2,24.67 -48.1,-14.68 -112.88,107.27 -15.66,29.46 -15.73,50.34 -48.97,52.96 32.34,-45.66 3.83,-24.72 49.48,-136.86 26.25,-64.49 -3.74,2.79 15.3,-37.6 33.06,-70.14 25.75,-41.97 25.81,-146.08 -123.48,99.73 -32.2,55.1 -89.84,145.7 -34.86,54.83 -29.01,78.75 -70.39,121.42 32.83,-84.87 24.89,-208.24 4.03,-298.17 -48.95,13.12 -41.55,-18.64 -50.24,31.05 -0.53,102.37 -18.4,298.39 22.01,346.39l-19.73 -80.73 44 27.91c-22.84,-10.88 -40.47,18.1 -30.9,62.7zm2.07 373.91c63.76,-62.42 48.67,-48.88 75.53,-128.65l-34.46 12.98 -41.06 115.68zm-424.19 476.66c56.7,-56.67 66.82,-40.67 86.92,-122.26l-41.12 31.41 -14.4 -61.99c-46.21,71.36 -39.46,24.73 -127.1,17.05 9.31,93.79 -15.66,15.05 37.36,63.56 52.99,48.47 18.63,28.81 58.33,72.23z"/>
   <path class="fil1" d="M7467.84 2109.6c128.32,-78.3 254.02,-243.1 384.86,-288.63 42.55,36.37 202.16,343.27 237.36,418.96 56.66,121.85 158.35,320.08 176.73,459.28l-235.31 168.61 -563.64 -758.21zm-63.31 -22.94c20.18,78.28 233.18,376.15 294.31,457.55 72.53,96.59 237.58,373.28 333.04,412.57l308.52 -219.5c-6.74,-194.77 -384.93,-936.48 -469.25,-1007.12 -66.38,24.01 -421.09,304.56 -466.63,356.5z"/>
   <path class="fil4" d="M11918.65 8553.08c-22.46,-13.6 5.72,-96.6 9.97,-112.54l89.98 5.66c8.91,-31.92 26.48,-56.46 41.45,-82.96 28.51,-50.52 24.19,-60.74 49.1,-114.95 31.21,-67.91 89.42,-108.42 121.82,-196.35l40.04 -15.35 2.1 -18.1 19.37 -40.95 13.38 40.95c47.75,0 36.41,12.27 36.41,-34.39 -42.01,-27.25 -36.42,11.06 -30.12,-32.37l208.44 -167.12 11.71 -58.59c44.77,-32.48 34.05,5.41 35.14,-43.18 -205.61,-42.56 -400.06,85.08 -521.11,253.27 -73.77,102.49 -109.14,163.42 -138.72,288.51 -37.09,156.88 3.48,196.01 11.05,328.46zm274.75 -343.43c37.66,7.46 26.12,11.3 14.4,-27.85 -31.29,0 -22.16,-6.1 -14.4,27.85 -40.16,-19.42 -28.9,-22.2 -22.59,22.61 36.18,0 31.77,10.05 22.59,-22.61zm-71.22 142.36c22.94,-15.79 34.71,34.41 16.39,-40.88 -26.93,8.74 -20.12,-19.04 -16.39,40.88 -42.01,-21.17 -30.43,-23.18 -20.72,22.76 34.51,0 29.58,9.14 20.72,-22.76z"/>
   <path class="fil1" d="M9525.76 1495.95c60.7,26.51 72.48,46.95 148.38,72.7 132.57,44.97 312.08,103.15 417.36,183.14 -46.87,118.26 -111.65,227.23 -157.22,349.68 -36.44,97.94 -86.7,284.33 -143.52,356.02l-222.07 -58.38 -42.93 -903.16zm328.24 1025.88c36.52,-55.7 104.6,-314.9 144.2,-408.2 36.76,-86.58 157.57,-313.04 164.79,-383.23 -148.45,-147.17 -331.64,-159.8 -525.85,-252.15 -174.27,-82.87 22.16,72.9 -159.83,-33.22 -20.87,102.04 -24.33,957.76 68.34,1014.3 55.23,33.69 254.09,80.55 308.35,62.51z"/>
   <path class="fil4" d="M14633.41 7365.59c32.72,-8 26.8,-14.23 18.17,18.31 31.46,-8.44 25.5,-15.15 21,16.54 72.46,-15.22 18.96,-2.61 32.75,19.75 31.52,-9.43 25.94,-15.47 18.36,16.4 35.97,-8.83 23.42,-12.92 23.42,28.84 33.76,41.79 108.04,95.46 169.03,99.72 -13.65,35.45 -15.94,25.41 21.4,15.94 -8.57,28.13 -10.79,19 20.38,14.13 -3.87,25.79 -9.72,20.86 15.58,16.77l-0.09 70.98 -44.57 27.18c4.97,-27.41 9.37,-17.66 -21.22,-23.48 0,35.64 -10.3,31.7 21.22,23.48 37.01,36.68 6.85,20.92 61.59,17.26 3.37,-32.01 10.44,-32.32 4.11,-66.17 -13.65,-73 -1.06,-15.09 -21.04,-49.25 6.91,-27.61 12.28,-22.2 -15.58,-16.77 4.14,-30.54 9.51,-24.04 -20.38,-14.13 7.7,-35.54 13.19,-28.28 -21.4,-15.94 21.65,-2.22 8.88,29.72 23.88,-30.02 -70.48,-99.27 -167.47,-183.01 -249.42,-293.62l-331.91 -559.02c-140.31,-222.13 -243.3,-653.88 -321.79,-919.97 -17.5,-59.34 -17.62,-100.44 -38.73,-148.66 2.34,146.65 30.98,385.4 71.55,527.54 24.88,87.2 50.73,135.61 72.7,235.23 28.09,127.48 203.43,529.08 266.51,618.79 25.99,36.97 24.81,18.21 59.25,78.25 50.63,88.27 161.23,221.92 165.27,291.93z"/>
   <path class="fil2" d="M13473.15 8285.17c-13.31,92.99 55.28,255.56 80.36,346.36 19.94,72.18 78.7,238.72 125.81,298.57l-0.85 68.14 320.47 0c-15.37,-86.28 -110.35,-159.67 -154.42,-249.05 -131.97,-267.64 -188.82,-440.36 -262.78,-711.9 -18.9,-69.36 -29.37,-103.94 -80.94,-143.31 17.93,697.19 268.48,891.71 302.46,1015.91 -76.5,-25.77 -160.65,-195.34 -204.37,-279.58 -74.96,-144.35 -61.76,-275.47 -125.74,-345.14zm70.77 -317.71l23.63 33.22c-2.42,-40.01 9.74,-33.22 -23.63,-33.22z"/>
   <path class="fil2" d="M13714.09 3779.05c-22.67,112.33 -53.94,186.17 -26.15,316.39 7.61,-33.58 5.22,-4.88 -21.1,-31.37 15.94,52.64 3.47,30.43 31.17,69.12l-94.73 12.99c-28.47,-85.4 30.49,-51.11 -58.28,-74.41l-4.56 -24.1 -52.56 8.85 -56.51 -44.11c57.15,-13.12 70.77,-16.32 130.32,6.28 5.7,-74.29 -7.08,-81.34 -42.45,-134.99 -49.93,-75.75 6.18,-61.12 -82.45,-111.84 -96.65,-55.31 -206.1,-64.29 -310.55,-93.64 43.74,42.83 79.9,61.1 144.01,62.01 -26.72,-27.31 -74.58,-30.15 -125.98,-32.03 -118.22,-4.32 -54.23,1.08 -143.53,-25.77 55.95,77.3 56.89,25.07 98.31,88.78 51.38,79.04 -0.33,22.51 85.7,90.67 144.12,114.21 76.2,65.41 243.76,132.13 -62.92,47.24 -23.45,11.41 -159.77,4.93 22.35,82.45 149.91,72.84 219.13,57.59 7.06,46.31 27.75,27.73 57.12,15.25 -36.95,27.95 -12.34,-0.5 -45.27,6.81 -6.71,1.49 -33.24,6.02 -35.31,7.07 -57.43,29.21 -2.72,-20.9 -53.16,49.5l17.82 17.82 231.57 17.81 19.36 -2.78c-2.24,29.94 -7.62,22.16 23.31,14.23 0,-25.47 5.22,-17.64 -23.31,-14.23l51.38 -52.12 67.31 37.12c-75.4,-152.27 -8.89,-458.39 86.41,-584.64l-55.76 58.39c-34.85,-13.07 -25.65,-18.54 -25.65,19.17l25.65 -19.17c-85.98,49.42 -76.85,50.33 -115.26,152.31z"/>
   <path class="fil2" d="M9411.95 4794.68c-73.46,36.32 17.58,113.31 -52.59,123.37 -11.24,98.05 20.4,224.07 -2.42,357.7 -18.49,108.28 -4.42,231.57 -73.84,311.61 -3.27,36.53 -9.76,78.83 -8.22,116.21 6.06,146.95 4.61,64.45 56.9,106.05 72.35,-167.49 197.99,-616.68 173.6,-765.98 -15.59,30.32 20.25,97.94 44.73,135.87 33.04,51.16 63.33,83.64 113.38,113.52 -37.31,-70.13 -35.8,-28.79 -29.32,-105.02 23.29,13.67 10.01,4.33 31.87,22.71 1.62,1.36 26.45,26.8 30.89,30.91 -8.84,-39.76 -6.92,-45.42 -27.47,-83.57 -26.11,-48.49 -18.43,-31.02 -48.51,-60.81 18.33,75.55 14.88,28.13 7.56,91.46 -119.47,-92.38 -111.25,-481.18 -103.83,-643.67 -53.56,63.1 -40.18,226.33 -27.85,302.82 27.81,-31.78 -7.41,-59.09 -8.55,-61.68 -8.42,-19.16 17.21,-12.66 -39.31,-48.24 -16.41,30.99 -63.75,11.44 -1.58,76.53l-35.43 -19.79z"/>
   <path class="fil1" d="M10922.09 4761.38c5.72,33.34 14.96,27.52 -14.8,27.52 -24.26,142.77 -186.65,253.54 -282.52,343.97l-63.68 63.87 -6.32 -4.38c-64.26,81.1 -121.44,140.05 -189.62,180.59 -96.84,87.16 -426.26,430.93 -470.67,533.63 98.65,-20.02 95.7,-6.41 159.33,-71.33 13.14,-91.26 149.98,-253.74 230.04,-292.84 77.44,-119.26 249.44,-243.46 301.63,-296.01 75.39,-75.91 -4.75,-23.96 117.94,-87.8l144.87 -99.41c-24.42,89.03 -229,403.19 -306.31,429.96l-105.59 103.1 -40.21 28.2 -84.47 78.72c-57.38,57.67 -159.44,114.69 -236.08,120.51 0,28.48 5.54,19.95 -25.77,13.35 46.16,38.56 -7.08,43.48 83.28,15.51 26.65,-8.26 51.42,-22.36 75.7,-33.72 49.85,-23.35 82.53,-49.65 127.58,-65.67 34.47,-75.68 18.6,-15.61 86.79,-75.76 21.99,-19.41 14.62,-19.45 35.09,-37.75 40.52,-36.22 11.26,-12.45 49.18,-32.27l4.14 3.7 95.85 -93.11c17.22,-78.2 168.46,-232.15 223.12,-325.99 67.05,-115.09 119.21,-237.07 162.9,-358.1 2.94,-77.71 14.68,-39.68 -13.6,-99.1 -27.26,0.38 -21.46,-24.12 -21.74,32.65l-36.06 -2.04z"/>
   <path class="fil3" d="M7651.59 4002.61l-14.55 33.73c86.21,-55.35 380.66,-348.63 615.41,-339.84l117.58 -24.54c29.97,-89.72 202,-104.73 288.47,-129.88 95.66,-27.83 243.09,-55.19 334.99,-65.86 115.57,-81.08 567.12,-88.28 730.16,-89.14 131.98,-0.69 480.42,48.12 586.62,82.84 37.1,12.13 55.33,30.39 97.06,42.67 65.79,19.33 157.22,21.31 234.65,31.78 61.72,8.34 122.67,-31.49 235.68,-4.87 83.88,7.18 121.68,28.41 207.41,15.99 -7.05,-67.11 575.81,1.73 636.81,27.64 -5.66,15 5.77,9.29 -20.73,-13.77 -115.36,-45.44 -387.94,-85.63 -517.66,-90.49 -141.02,-5.29 -468.55,59.1 -561.48,43.63 -63.13,-10.5 -169.13,-44.62 -240.8,-60.99 -91.03,-20.78 -175.89,-35.81 -266.88,-52.73 -499.68,-92.87 -1199.69,-64.41 -1647.96,147.4 -160.29,75.74 -652.38,224.01 -814.79,446.41zm-58.95 75.71l-24.37 34.55 45.92 -68.19 -21.56 33.63zm-32.41 67.98l-19.06 15.69 -17.56 7.39 17.56 -7.39 19.06 -15.69 -9.63 -12.12 9.63 12.12z"/>
   <path class="fil2" d="M8430.97 6415.27c63.72,-33.87 201.04,18.77 313.24,18.01 71.81,-0.48 114.1,-3.85 178.96,9.91 72.55,15.39 92.5,29.95 158.22,7.71 18.58,-93.61 43.22,-117.87 41.76,-217.22 -288.81,-39.27 -276.94,-48.76 -620.12,-57.28l-72.07 238.87z"/>
   <path class="fil3" d="M10764.97 3830.73l-7.06 1.75c39.45,56.12 65.08,75.32 3.65,124.53l0.31 178.31c23.91,32.08 33.72,-34.53 29.97,71.65 -2.42,68.86 4.01,25.47 -31.14,52.88l3.27 90.96c22.03,109.02 -34.94,230.16 -78.72,312.6l-124.34 237.9c1.57,-30.43 199.91,-219.64 302.83,-249.39 -7.54,56.01 -41.09,208.24 -71.07,231.57 29.01,-47.4 69.9,-127.38 94.92,-183.2 16.47,-36.75 21.16,-72.52 34.08,-107.07 28.1,-75.11 14.76,-10.7 39.97,-85.75 20.45,-60.86 44.38,-136.76 45.46,-211.73 1.16,-80.28 -15.48,-195.74 -13.96,-231.83 74.21,121.1 -40.25,20.49 -46.51,17.29 -2.95,-1.51 -9.69,-36.05 -67.05,-5.58 -2.34,-3.98 -5.33,-9.99 -6.36,-12.31 -0.93,-2.1 -4.34,-9 -5.33,-11.35l-10.15 -31.3c-23.77,60.43 9.22,18.14 -52.92,37.15 3.98,-14.67 -25.64,-54.5 29.47,-45.06l-62.51 -12.42c6,-105.77 14.4,-99.2 -19.71,-192.92l12.87 23.34z"/>
   <path class="fil4" d="M13567.54 8000.68l-23.63 -33.22c1.36,-60.85 -26.74,-114.97 -43.74,-180.45 -28.72,48.55 -17.49,45.67 0.62,106.97 51.57,39.37 62.05,73.96 80.94,143.31 73.96,271.54 130.8,444.26 262.78,711.9 44.07,89.38 139.05,162.77 154.42,249.05l178.31 0c-13.51,-65.05 -164.71,-275.8 -213.76,-341.54 -120.73,-161.83 -216.97,-438.62 -284.87,-572.75 -32.75,-64.68 -68.54,-128.54 -91.75,-196.37 -26.99,-78.89 -110.71,-386.21 -99.8,-456.92 28.94,30.62 15.05,16.34 5.61,64.22 -8.24,225.78 199.44,744.26 213.66,706.56 0.98,-2.61 11.33,5.29 8.55,8.04 -4.24,4.19 -9.58,19.34 -10.39,14.56 -0.82,-4.79 -10.47,6.06 -14.73,10.27 -15.02,-32.53 -113.71,-225.2 -122.22,-233.61z"/>
   <path class="fil4" d="M14889.61 8997.29l104.12 -5.05 -1.82 -145 -369.64 -484.47 -181.97 -338.06c-49.76,-76.68 -17.35,-60.04 -120.73,-201.98 64.71,323.4 137.06,371.46 242.05,620.99 137.37,326.52 299.38,450.4 327.99,553.57z"/>
   <path class="fil4" d="M13482.34 8998.24l196.13 0 0.85 -68.14c-47.1,-59.85 -105.87,-226.4 -125.81,-298.57 -25.09,-90.8 -93.67,-253.37 -80.36,-346.36 -3,-46.7 -27.49,-162.53 -36.84,-218.1 -11.81,-70.2 -21.22,-159.06 -28.23,-226.71 -47.53,-36.32 -45.25,-22.44 -23.93,-95.31 4.11,9.44 -12.97,561.18 -9.38,647.77 9.2,221.31 101.1,495.66 107.57,605.41z"/>
   <path class="fil2" d="M13155.55 4695.04c-15.97,52.46 15.22,23.57 -29.18,55.89 -67.95,-22.93 -500.89,-29.44 -653.27,-40.59 -74.46,-5.45 -130.46,33.16 -181.41,-53.8l55.12 9.72 9.37 -22.87c-30.2,-10.49 -52.09,-29.58 -64.49,13.15 -50.08,6.62 -116.35,37.15 -178.28,59.52 -119.46,43.12 -134.68,56.52 -155.25,125.54 141.7,6.93 127.93,-76.47 151.13,-20.86 77.4,13.41 100.6,-1.85 163.42,-31.03 -57.93,-12.78 -88.93,42.83 -103.82,97.72 112.1,23.13 413.26,-125.84 939.28,-110.21 0.64,0.02 71.35,2.13 72.89,1.71 71.54,-19.54 22.65,3.4 69.28,-54.68l-94.77 -29.2z"/>
   <path class="fil3" d="M7651.66 4366.71c-32.63,15.27 -195.23,316.74 -234.42,384.05 -61.77,106.09 -190.16,323.99 -197.06,437.84l-3.5 18.55c6.8,-55.34 69.24,-208.2 159.73,-265.67 11.88,48.23 28.73,128.15 31.59,173.58 19.98,-95.04 41.4,-207.11 79.34,-289.08 13.02,-28.12 50.24,-92.15 70.14,-127.39 1.75,-3.09 31.92,-52.83 34.23,-55.4 40.89,-45.76 27.14,-26.54 69.71,-38.64l-0.25 97.88c-11.28,44.72 -10.12,27.27 -21.66,38.52 8.15,-20.09 79.76,-84.95 102.59,-109.99 27.05,-29.7 65.65,-98.08 93.34,-136.21l107.82 -124.67c39.45,-45.21 76.35,-45.86 88.3,-110.26 -14.75,17.65 -59.5,32.17 -94.42,66.34 -40.46,39.59 -53.05,58.23 -99.11,90.93 -41.68,-13.77 -58.65,-38.02 -84.14,-26.8l-18.53 15.43c-1.57,-4.12 -7.01,7.74 -10.75,11.38l4.11 -139.44c-31.62,58.75 -17.87,55.65 -77.06,89.05z"/>
   <path class="fil4" d="M13245.12 4161.03c22.85,7.68 64.77,34.31 70.57,-14.13 52.06,-15.75 66.24,8.9 95.57,-11.77l17.82 17.82 -17.82 -17.82c50.44,-70.4 -4.27,-20.29 53.16,-49.5 2.07,-1.05 28.6,-5.58 35.31,-7.07 32.93,-7.31 8.32,21.15 45.27,-6.81 -29.36,12.49 -50.06,31.06 -57.12,-15.25 -69.22,15.25 -196.78,24.87 -219.13,-57.59l-0.18 -5.51 16.52 73.28c25.55,-3.52 20.35,-8.92 15.35,16.45 31.52,-1.85 23.11,-7.66 15.25,25.28l0 38.49c-44.21,-3.93 -62.74,-18.79 -70.57,14.13 -93,3.37 -77.87,14.02 -145.52,64.54 -1.85,151.96 76.12,327.17 197.61,421.58l42.8 -141.8c15.35,-52.78 30.18,-34.97 78.28,-24.29l26.87 -21.17c-81.82,-123.97 -38.57,-23.09 -45.8,-173.41 -50.93,-35.86 -30.36,-37.93 -76.61,-94.36l-71.82 67.89c21.5,-0.99 33.15,3.29 49.23,-21.22 60.57,-92.32 11.62,-44.16 5.26,-74.13l-60.31 -3.64z"/>
   <path class="fil3" d="M10703.42 5158.6c-46.9,88.79 -139.97,129.98 -210.72,192.47 -10.38,9.18 -127.07,145.22 -208.85,191.34 -80.06,39.1 -216.91,201.58 -230.04,292.84l-3.96 -2.23c-8.36,-36.29 -11.51,-25.2 25.77,-13.35 76.64,-5.82 178.7,-62.84 236.08,-120.51 30.61,-59.42 22.77,-54.33 84.47,-78.72l40.21 -28.2c32.4,-62.77 42.38,-71.96 105.59,-103.1 77.31,-26.76 281.89,-340.92 306.31,-429.96l-144.87 99.41z"/>
   <path class="fil1" d="M12805.6 6035.34l-83.94 30.37c-12.07,40.39 -90.18,54.08 -131.03,80.22 -67.72,43.33 -67.01,74.69 -129.01,85.9 9.05,33.16 13.45,21.44 -24.01,27.88l-81.12 66.37 94.54 -29.95c0,-35.38 -9.39,-32.45 21.63,-18.35 -7.13,-34.16 -12.24,-22.1 26.29,-28.18 98.6,-41.27 187.44,-62.62 269.11,-99.32 -4.42,62.54 2.92,70.56 -54.69,104.85 5.57,48.21 16.68,42.91 -27.26,23.8 7.22,30.15 12.06,23.07 -18.99,16.75 4.92,27.59 12.27,22.47 -12.96,22.47 -4.13,32.35 31.01,25.6 -15.53,26.05l-10.09 38.47 -31.48 4.68c-15.83,39.98 -37.75,83.75 -75.86,99.36l-28.3 48.02 -37.17 12.81c8.23,31.72 15.03,27.33 -15.96,17.62 11.58,34.08 15.84,26.11 -19.51,17.44 8.76,31.66 14.46,25.5 -17.6,18.02 9.19,32.6 14.59,26.07 -18.35,17.41 6.76,32.4 11.85,21.16 -24.05,27.5l-4.16 30.48 -91.23 39.88 48.45 30.54 18.63 -28.71 0.88 29.25 57.49 -10.68 6.82 7.48 138.39 -58.5c-6.08,13.95 -5.38,37.14 -68.29,52.83l-5.09 61.59c70.72,-22.74 46.9,-26.05 111.8,-26.65l-21.3 16.51c3.32,45.56 14.82,42.11 -25.44,22.8 8.9,32.53 14.74,26.14 -18.2,18.55 8.18,33.69 15.06,28.23 -18.08,18.93 8.31,30 12.87,23.16 -18,16.31 7.1,34.23 16.3,28.03 -15.07,28.03 -19.92,94.16 -45.91,49.6 -87.27,131.55 58.68,-14.57 59.39,-15.52 96.51,-53.41l59.07 4.91 11.98 -43.4 -60.28 8.38c34.89,-46.48 46.4,-39.06 77.4,-82.53 58.13,-81.46 134.39,-181.62 164.71,-271.41 -102.85,29.95 -84.8,88.12 -182.8,88.89 31.44,-63 31.25,-17.41 56.86,-84.82 -84.81,16.55 -196.59,142.31 -246.62,114.04 152.06,-120.35 482.07,-475.83 526.66,-665.05l-68.5 -5.96z"/>
   <path class="fil3" d="M7122.26 5429.33c-76.1,107.49 -140.95,405.05 -167.74,549.01 -45.43,244.26 -71.86,419.03 -65.38,668.6 9.44,363.69 108.14,887.88 327.08,1175.79l23.54 29.45 18.68 47.37 -13.82 -41.38 -35.41 -54.63 11.29 -23.03c-139.61,-114.08 -215.59,-642.53 -253.48,-829.07 -53.17,-261.84 -8.09,-753.14 30.92,-1003.16 17.5,-112.06 60.7,-158.12 71.08,-283.18 6.75,-81.17 31.41,-204.15 79.97,-249.56l-26.72 13.79z"/>
   <path class="fil2" d="M13803.16 4544.71c55.2,17.39 55.55,24.49 86.98,65.32 67.04,-1.5 23.76,-36.49 113.96,37.51 77.34,63.45 262.36,192.8 364.85,151.6 29.61,-11.91 6.1,-1.38 20.04,-21.27 -179.88,-109.58 -24.44,77.18 -351.65,-271.86 -44.3,-47.26 -32.63,-52.22 -66.97,-93.33 -16.79,-20.1 -57.62,-59.33 -79.17,-81.88 -72.15,-75.52 -71.25,-104 -177.11,-152.26 43.79,79.95 33.35,54.83 106.82,94.17 -0.41,0.25 -21.82,3.96 -25.52,58.09 -2.49,36.26 3.68,29.49 6.86,73.26 5.89,81.05 12.69,109.5 0.92,140.65z"/>
   <path class="fil1" d="M13452.41 6098.28l2.53 51.43 -20.66 5.04c-11.8,65.77 -104.49,282.81 -151.03,331.95l-0.97 66.74 -41.85 0.33 5.17 4.18c-2.67,35.76 7.81,31.13 -24.24,23.26 2.18,58.43 10.28,33.4 -19.24,34.87 6.21,28.49 11.7,22.56 -17.08,17.19 -35.35,164.23 -95.3,120.33 -118.67,216.12 45.28,-20.82 10.83,1.13 40.94,-25.53 102.23,-90.49 214.28,-271.57 292.53,-382.24 18.09,99.81 -348.32,810.98 -349.14,814.28 127.57,-71.58 388.22,-731.26 395.29,-805.63 -14.3,-57.73 19.01,-10.53 -31.19,-54.14l56.44 -31.03c1.78,-71.42 26.71,-149.31 32.95,-203.08 1.59,-13.77 14.65,-57.61 21.51,-83.3 27.17,-101.75 1.54,-82.94 -10.08,-98.28 -54.59,66.97 -18.15,83.4 -63.23,117.86z"/>
   <path class="fil2" d="M12170.9 8988.99l785.14 0.53c-6.5,-90.87 -14.26,-160.27 -79.57,-220.17 -41.72,42.93 -110.46,71.05 -165.46,100.83 -187.02,101.25 -291.35,-58.75 -390.18,-1.64 -61.2,35.35 -113.13,63.27 -149.92,120.45z"/>
   <path class="fil1" d="M9432.78 7992.15c59.95,1.62 27.44,-19.27 82.02,41.52 15.58,17.35 33.67,38.5 48.67,56.25 -34.28,40.59 -27.47,32.82 -108.12,30.8 -44.2,-1.11 -66.46,12.11 -73.25,-23.59l-130.26 5.32 3.76 201.05 47.02 58.17c126.79,-65.12 165.51,-129.69 329.75,-99.82 -6.14,213.82 3.6,93.19 -95.78,229.76 95.99,-17.69 75.61,-22.81 134.65,-80.49 0.42,-233.21 -47.09,-352.22 -234.67,-472.38l-3.79 53.4z"/>
   <path class="fil2" d="M8663.67 4829.68l-42.73 53.63 30.81 -32.02c-26.63,28.94 -296.64,678.45 -250.22,884.03l48.52 -48.31c6.97,-7.51 14.12,-17 21.22,-24.62l-4.56 -14.4c35.86,0 23.58,7.52 24.95,-34.15l-6.81 -1.02c45.72,-52.76 59.77,-83.77 69.82,-163.23 10.47,-82.76 25.18,-117.26 38.91,-192.82 24.19,-133 79.03,-237.71 112.22,-373.29l-6.95 -1.87c33.89,0 21.62,6.88 23.45,-33.75l-6.14 -1.78c35.38,0 23.3,7.36 23.98,-33.85l-76.46 17.46z"/>
   <path class="fil1" d="M11839.57 4392.56l10.87 30.28 46.67 -1.76c81.64,-0.34 174.35,-22.31 242.97,5.06 -85.13,25.58 -201.85,15.12 -251.74,83.16 53.88,24.37 29.82,10.73 103.46,-8.97l386.1 -63.87 599.76 -34.04c-60,-40.64 -462.43,-53.9 -560.7,-52.93 -100.15,0.98 -202.87,-5.58 -304.22,2.35 -90.37,7.09 -187.45,37.86 -273.18,40.71z"/>
   <path class="fil2" d="M12791.48 3898.29l-1.56 -20.79 -9.57 18.87 11.13 1.92 -0.41 6.27 -60.24 84.24 14.11 30.01c9.02,-33.31 16.38,-28.4 -16.56,-19.95 8.06,-33.24 13.02,-26.26 -19.78,-15.42 11.86,-40.22 15.08,-28.14 -27.25,-17.34 0,35.72 -7.88,28.24 27.25,17.34 -11.49,31.82 -14.09,22.87 19.78,15.42 -7.18,34.9 -16.14,31.93 16.56,19.95l37.86 49.79c53.51,3.52 6.25,17.08 57.31,-26.45 14.09,111.77 15.46,71.14 30.37,82.1 -7.85,30.99 -15.11,26.14 15.41,20.25 0,33.98 -10.05,33.78 18.11,18.48 16.38,35.86 -32.12,7.1 33.93,41.09 42.15,6.22 202.18,-68.23 247.74,-83.96 52.24,-18.05 54.99,-21.54 99.42,-53.41l15.35 16.45c-4.63,31.07 -12.97,25.28 15.25,25.28 7.86,-32.93 16.28,-27.12 -15.25,-25.28 5,-25.37 10.21,-19.97 -15.35,-16.45l-16.52 -73.28 -52.59 58.46c-33.67,-75.93 6.23,-48.56 -47.7,-81.33 8.64,-35.89 15.15,-28.72 -20.94,-20.09 4.56,-24.97 9.06,-19.02 -16.61,-14.66 5.7,-31.14 13.26,-26.68 -16.55,-19.51 7.25,-31.77 15,-28.01 -15.52,-19.01 11.93,-36.58 15.92,-24.37 -25.87,-26.26 0,40.82 -11.3,35.28 25.87,26.26 -10.52,31.42 -16.67,25.94 15.52,19.01 -7.56,30.01 -13.73,24.11 16.55,19.51 -6.05,28.5 -11.31,23.32 16.61,14.66 -4.39,32.48 -11.36,25.78 20.94,20.09 -86.13,31.87 -291.32,60.12 -264.29,192.43 11.6,-31.63 15.71,-23.82 -18.11,-18.48 10.87,-34.13 18.69,-29.83 -15.41,-20.25 6.83,-38.52 2.08,-70.09 13.92,-94.69 19.74,-41.03 24.49,-6.23 45.72,-83.46l-27.96 15.41c-2.97,2.03 -21.39,14.62 -25.55,18.83l-2.37 -75.33 -82.75 -6.72z"/>
   <path class="fil1" d="M12902.6 6244.63c244.3,-148.66 532.76,-1099.58 456.02,-1290.51 -44.75,60.36 -104.77,354.77 -134.04,459.14 -17.67,62.95 -111.38,161.04 -59.88,244.69l61.92 -126.53c-10.47,199.95 -299.41,639.45 -324.02,713.2z"/>
   <path class="fil2" d="M9211.19 5626.91c19.18,-77.69 13.71,-107.61 13.71,-191.38 -12.3,12.05 -35.28,-21.51 -5.87,64.29 23.26,67.83 15.04,44.19 63.43,75.18l-28.81 -513.03c-1.57,-9.72 -10.81,-72.02 -11.37,-74.58 -15.76,-71.35 6.56,-16.33 -28.03,-63.69 -40.64,20.62 -28.71,-43.52 -68.9,69.02 -20.94,58.66 -9.11,214.44 -9.36,282.54 -0.31,84.11 1.26,108.26 13.59,187.68 14.62,94.11 -15.75,95.94 61.62,163.97z"/>
   <path class="fil1" d="M10706.76 3903.56l-11.03 160.5c-7.82,45.5 -5.24,106.45 -38.08,112.56 9.96,75.64 10.3,34.28 -14.39,47.46 4.75,86.78 -93.57,352.52 -141.6,427.83 -19.01,61.96 -19.2,104.5 -76.58,132.72 -1.1,34.08 21.68,19.97 -11.09,27.59 -6.81,32.77 3.92,29.2 -24.29,22.36 8.02,37.68 18.97,31.72 -13.93,31.72l-11.61 34.99 -58.78 111.4 89.18 -52.44 8.34 -12.54c8.57,-65.5 -3.12,-31.27 26.58,-41.79 44.38,-130.26 108.94,-179.37 155.36,-318.73 25.14,-75.45 103.16,-265.96 150.77,-321.69l-14.16 154.91c2.91,-3.39 6.22,-8.51 7.73,-10.93l34.77 -58.7 -3.27 -90.96c-26.91,-35.37 4.85,-48.19 -33.66,-24.46 2.01,-52.01 -12.24,-39.59 31.15,-28.9l3.68 -71.17 -0.31 -178.31 -3.65 -124.53 7.06 -1.75c-52.57,-55.42 3.14,-16.27 -69.02,-44.64l10.81 117.48z"/>
   <path class="fil2" d="M12767.04 5085.98c-71.22,21.64 -219.44,110.67 -152.8,184.64 71.37,79.22 210.79,-56.22 300.47,-95.44 109.57,-47.91 156.58,-69.12 248.74,-139.66l30.75 -97.7c-30.23,21.18 -96.18,34.39 -143.81,48.12 -133.17,38.38 -51.35,43.97 -145.38,33.09l21.11 -38.87 -37.35 4.49 -11.91 36.89c38.4,27.1 35.12,-3.62 27.54,28.96 -65.61,15.69 -50.87,38.48 -32.88,-35.02 -52.9,13.44 -21.08,-14.9 -48.1,38.6 43.06,36.37 40.34,-2.11 32.06,37.53l-192.65 99.68c17.09,-22.95 2.84,-10.47 25.61,-32.3 49.35,-47.28 37.64,-5.8 78.59,-73.02z"/>
   <path class="fil3" d="M13315.69 4146.91c-5.8,48.44 -47.72,21.81 -70.57,14.13l60.31 3.64c6.36,29.96 55.31,-18.2 -5.26,74.13 -16.08,24.51 -27.73,20.23 -49.23,21.22l71.82 -67.89c46.25,56.43 25.68,58.5 76.61,94.36 7.23,150.32 -36.02,49.44 45.8,173.41l-26.87 21.17 64.22 -9.74c45.85,-61.39 -1.82,-21.33 79.13,-39.01 54.73,-11.96 24.57,-6.1 73.04,-2.47 42.77,-31.51 -47.51,-33.81 23.46,-11.88 0.58,0.18 2.42,4.69 4.02,6.78 -42.35,-114.61 4.97,-63.22 -8.77,-115.17 -19.32,-73.04 -39.89,-0.8 -18.18,-128.44 45.46,-7.87 55.04,10.85 25.44,-10.37l-231.57 -17.81 -17.82 -17.82c-29.33,20.67 -43.51,-3.98 -95.57,11.77zm407.14 297.93l-26.72 -3.73c-9.04,37.1 -5.96,10.79 26.72,3.73z"/>
   <path class="fil1" d="M9606.38 4105.93c-10.14,58.2 -1.2,44.88 -31.75,78.4l-71.31 146.93 -5.01 61.38 -35.02 16.57c-0.88,78.43 -19.51,99.97 -48.58,171.45 -0.87,35.04 9.59,31.63 -20.77,23.32 2.85,55.34 -20.81,241.46 -34.58,314.08 70.17,-10.06 -20.87,-87.04 52.59,-123.37 -9.63,-76.43 74.96,-378.78 144.93,-402.62l-32.2 152.97c-7.42,162.5 -15.64,551.29 103.83,643.67 7.32,-63.33 10.77,-15.92 -7.56,-91.46 -45.3,-74.75 -62.78,-216.37 -71.73,-302.82l20.22 -320.83c-6.66,-86.37 -12.61,-40.4 21.01,-46.3 -11.86,-80.61 25.69,-227.54 69.22,-292.15 3.97,-94.27 6.22,-43.65 -14.72,-46.62l-11.25 -6.65c-4.71,37.89 6.67,33.06 -27.31,24.06zm57.11 1187.1l49.21 75.89c38.21,-7.74 25.9,3.46 29.39,-40.08 -36.87,-28.52 -40.7,-44.37 -45.16,-87.2 -4.44,-4.11 -29.27,-29.55 -30.89,-30.91 -21.87,-18.38 -8.59,-9.04 -31.87,-22.71 -6.48,76.23 -7.99,34.89 29.32,105.02zm101.84 85.99l5.9 -8.91c-6.31,2.24 -20.32,-1.37 -19.23,5.78 0.2,1.27 -2.31,2.89 -1.96,2.97 1.52,0.36 10.21,-0.25 15.29,0.16z"/>
   <path class="fil1" d="M9823.45 4293.02c1.52,14.39 -38.13,356.57 -40.89,363.93 -16.78,84.62 -21.09,251.65 -16.68,339 4.75,94.04 21.11,216.79 19.7,300.09 37.22,48.58 -2.84,1.44 25.91,48.86 59.46,98.06 -50.27,-59.89 15.95,25.37l25.81 -77.07 6.63 -9.88c-40.4,-48 -22.54,-244.02 -22.01,-346.39 3.22,-99.64 30.45,-83.18 -36.81,-114.01l43.88 -13.84c25.48,-184.69 12.35,-239.68 25,-385.25 18.36,-211.11 17.03,-165.67 -33.31,-195.06 3.35,31.05 18.69,58.5 -13.18,64.26z"/>
   <path class="fil2" d="M10607.47 5513.95l-95.85 93.11c-5.23,-4.42 -10.32,-1.74 -10.51,-1.75 -0.08,0 -12.2,14 6.37,-1.95 -37.92,19.83 -8.66,-3.95 -49.18,32.27 -20.48,18.31 -13.11,18.35 -35.09,37.75 -68.2,60.15 -52.32,0.08 -86.79,75.76l1.42 8.01c208.05,-48.61 653.55,-444.72 749.4,-606.46l-40.41 33.98c38.73,0.24 13.3,4.71 24.92,-26.85 -43.15,32.72 -19.51,19.39 -43.99,47.3 -29.84,34.02 -14.11,26.25 -64.73,36.94l19.76 -73.56c-33.18,30 -45.73,59.28 -53.37,66.44 -8.01,7.51 -53.04,27.55 -66.58,36.55l-278.52 258.03c-58.82,62.09 -70.47,34.65 -46.65,59.82 54.94,-35.78 46.33,-13.1 69.81,-75.4zm-211.29 106.5c-61.71,24.4 -53.86,19.31 -84.47,78.72l84.47 -78.72zm145.8 -131.3c-63.21,31.14 -73.19,40.33 -105.59,103.1l105.59 -103.1z"/>
   <path class="fil1" d="M12356.17 4643.39l-9.37 22.87 -55.12 -9.72c50.95,86.96 106.96,48.35 181.41,53.8 152.38,11.15 585.33,17.67 653.27,40.59 44.4,-32.32 13.22,-3.43 29.18,-55.89 -76.87,-5.65 -126.71,-31.46 -200.11,-43.94 -40.59,-6.9 -112.31,-15.66 -165.81,-22.76 -158.17,-20.99 -304.73,11.41 -433.47,15.05z"/>
   <path class="fil1" d="M8845.12 4972.56c-48.99,220.35 -116.6,422.92 -191.86,630.6l-18.94 46.32 -7.35 130.3c41.83,34.78 -4.14,23.08 34.05,-23.43 34.48,-126.1 28.7,-185.3 118.23,-301.98l-9.25 132.03 45.17 55.52c6.66,-50.77 -13.02,-212.75 26.3,-234.98 -40.26,-218.44 89.83,-437.21 85.52,-637.23 -46.03,44.72 -75.55,138.78 -81.88,202.84z"/>
   <path class="fil4" d="M11835.12 6890.87c48.08,-39.35 66.37,-75.95 86.3,-131.71 29.17,-81.56 25.52,-58.3 66.58,-127.35 -58.2,-33.87 -142.17,-58.4 -215.76,-89 -43.47,38.74 -77.46,152.76 -105.91,210.92l22.5 -24.34c-40.93,61.79 1.97,88.42 44.71,100.13 34.47,9.44 102.08,13.11 145.6,0.05 -43.22,-0.54 -32.63,12.8 -44.02,61.3z"/>
   <path class="fil1" d="M11932.74 5337.24c42.85,-14.26 58.59,-21.09 107.22,-21.72 108.26,-1.41 62.28,-1.99 94.78,40.93 29.87,-40.85 27.04,58.62 24.82,-58.68l275.17 -178.06c79.66,-69.14 52.07,4.5 85.68,-111.55 -104.46,14.08 -446.99,197.51 -557.69,257.01 10.02,12.77 18.22,84.24 78.41,32.54 -100.79,-12.91 -23.45,24.86 -95.22,-23.89l-2.05 45.24c-0.38,2.86 -1.99,8.19 -11.12,18.16z"/>
   <path class="fil4" d="M14123.61 7270.5c-54.88,-86.46 -58.93,-280.18 -113.79,-374.27 -36.35,0 -31.96,9.51 -20.02,-23.47 27.51,23.86 4.4,319.4 8.97,378.04 3.85,49.36 25,128.4 31.87,178.6 23.54,171.93 56.14,334.52 116.13,502.39 21.68,60.64 22.19,128.26 37.61,178.33 10.66,34.6 17.54,30.95 30.06,78.42 25.24,95.59 17.46,42.73 -1.58,61.7 -4.76,-93.82 -73.05,-271.42 -71.13,-463.93l-55.38 -443.99c16.59,-119.8 -7.74,-23.38 37.24,-71.83z"/>
   <path class="fil1" d="M11477.36 4193.48l45.33 35.88c1.94,-155.49 -53.97,-296.53 -131.17,-424.98 -136.99,-227.92 -255.85,-203.61 -306.44,-248.89 -85.73,12.43 -123.53,-8.81 -207.41,-15.99l19.58 43.09c121.48,15.53 321.76,110.64 395.77,194.32 81.42,92.07 192.81,289.2 184.34,416.56z"/>
   <path class="fil4" d="M8154.05 6361.83l12.65 23.78 186.96 13.4c-2.57,60.45 -25.46,87.23 -8.24,155.36 12,-17.26 93.98,-326.95 102.36,-380.2l-221.78 5.51c-47.5,77.92 -42.92,94.92 -71.96,182.15z"/>
   <path class="fil2" d="M11881.6 4522.64c-63,41.8 -17.82,28.03 -59.4,4.48 40.89,-30.27 -5.82,-48.81 59.4,-4.48zm496.3 -86.17l-386.1 63.87c-73.64,19.7 -49.58,33.33 -103.46,8.97 49.89,-68.05 166.61,-57.58 251.74,-83.16 -68.63,-27.36 -161.33,-5.4 -242.97,-5.06l-46.67 1.76 -10.87 -30.28c-50.31,45.37 -6.52,-49.68 -37.27,37.14 47.88,24.59 19.17,-4.62 -9.34,48.3 -19.52,36.23 -23.6,56.19 -32.26,94.86 334.23,60.48 261.3,-62.55 596.59,-83.12l20.62 -53.27z"/>
   <path class="fil3" d="M8132.2 4824.31c9.2,35.39 13.29,23.37 -27.35,23.37 -47.76,26.69 -41.84,30.91 -47.57,74.31l-79.32 104.01c-15.39,-35.4 -29.77,15.59 40.05,-64.01 24.31,-27.71 31.39,-44.69 54.03,-73.42 87.61,-111.22 120.19,-66.56 99.01,-67.73 36.38,-64.32 77.74,-217.03 115.57,-299.76 37.85,-82.8 47.99,-77.2 87.4,-130.27 33.08,-44.56 1.26,-63.67 57.07,-130.89 -26.48,1.85 -99,67.68 -132.03,91.92 -102.03,74.93 -171.89,178.06 -192.6,308.53 -13.13,82.65 8.91,160.46 -91.58,187.31l-8.53 38 90.44 -109.17c22.69,-86.95 8.96,-48.57 62.45,-74.22 55.55,95.39 6.09,-96.29 20.16,39.1 3.86,37.16 3.48,22.35 -5.48,52.84l-7.38 10.15c-14.28,8.37 -15.22,2.28 -34.32,19.93z"/>
   <path class="fil3" d="M7710.69 4214.2l0.06 -3.33c0,37.62 11.29,33.53 -21.15,26.66l-53.77 34.46c4.87,31.2 11.55,24.29 -19.8,21 7.53,27.05 12.38,22.2 -14.64,14.49 3.72,35.62 9.16,25.41 -28.22,15.34 -28.39,-11.38 -22.92,-14.78 -12.78,13.93l-31.19 24.33c5.19,35.74 10.63,23.46 -30.65,23.46 -191.05,70.88 -708.98,976.6 -610.4,1243.14l195.03 -541.08c-15.78,-49.81 -32.88,-49.71 15.09,-32.5 -23.61,-74.09 -13.42,-36.25 8.9,-90.83 118.31,-289.48 362.5,-607.27 616.98,-765.82 69,-42.98 21.2,-18.7 39.81,-12.87l-53.27 29.64z"/>
   <path class="fil1" d="M12173.67 3951.04c29.19,0.76 210.46,57.47 384.47,74.64 -13.99,-40.17 5.58,-46.81 -154.12,-92.79 -298.97,-86.08 -277.76,-102.68 -643.88,-120.32 12.05,29.16 -25.91,11.68 43.98,42.8 110.8,49.34 311.47,26.94 369.55,95.67z"/>
   <path class="fil1" d="M13163.45 5035.52c-19.11,16.19 -306.03,347.91 -314.79,365.05 63.57,-37.99 113.56,-92.01 165.64,-149.49 46.42,-51.22 87.03,-139.94 147.4,-162.41 27.6,-69.72 35.46,-46.28 68.73,-100.61 47.19,-77.06 -17.55,-43.27 64.2,-107.69l-8.76 2.94 -1.08 -62.98 -358.67 159.83 -21.11 38.87c94.03,10.88 12.21,5.29 145.38,-33.09 47.63,-13.73 113.58,-26.94 143.81,-48.12l-30.75 97.7zm-291.93 -20.04c-17.99,73.51 -32.72,50.71 32.88,35.02 7.58,-32.58 10.86,-1.86 -27.54,-28.96l-5.34 -6.06zm-104.48 70.5c-40.95,67.22 -29.24,25.73 -78.59,73.02 -22.78,21.84 -8.53,9.36 -25.61,32.3l192.65 -99.68c8.28,-39.64 11,-1.16 -32.06,-37.53l-56.38 31.89z"/>
   <path class="fil1" d="M12110.88 5651.67c3.3,31.17 -83.44,33.43 -127.77,60.58l435.68 -89.86c16.45,-34.34 7.26,-16.34 66,-23.45l25.84 -1.47 -22.98 10.19c0,33.78 6.3,23.58 -30.54,14.07l-32.11 48.83c-36.38,93.87 -206.43,126.35 -275.64,206.92l172.52 8.56c0,-31.89 -5.42,-20.12 33.11,-12.08 -51.5,-44.58 24.09,-36.42 -97.75,-28.93 69.75,-82.11 305.3,-208.66 391.71,-412.95 -167.37,61.35 -354.06,197.59 -538.07,219.6z"/>
   <path class="fil1" d="M12455.08 7097.35c8.14,34.06 13.57,23.14 -23.57,27.52l-41.38 51.4c130.09,-4.4 324.14,-221.15 375.24,-226.42 31.45,44.44 -12.43,44.24 35.85,30.32 3.5,-2.49 183.89,-183.99 159.52,-279.68 38.94,14.49 37.29,6.39 45.06,-58.23 -57.52,29.5 -186.79,184.41 -261.28,246.71 -65.64,54.88 -213.64,188.17 -289.44,208.36z"/>
   <path class="fil2" d="M8653.25 5603.15c75.27,-207.68 142.87,-410.25 191.86,-630.6 -85.03,38.26 -36.65,-15.17 -98.28,113.5 -17.86,37.27 -27.01,34.04 -41.59,66.25l-65.59 258.42c-31.32,98.49 -51.22,165.1 13.6,192.43z"/>
   <path class="fil1" d="M8347.73 5061.62c-46.07,144.43 -114.14,104.73 -160.32,295.46 88.28,4.41 92.29,3.26 137.76,-71.07l29.13 69.27 24.42 -40.71c-3.99,-69.19 54.49,-286.36 80.42,-361.31 53.36,-154.15 14.71,-88.71 -0.15,-114.1 -39.92,61.45 -47.23,183.96 -111.27,222.46z"/>
   <path class="fil1" d="M12748.39 8054.3c-26.97,81.81 -40.87,117.82 -38.81,214.38 2.87,135.23 53.84,107.35 -64.3,139.84l-89.49 42.1 154.73 -10.45 14.43 -20.06c98.09,-132.56 16.1,-234.88 73.09,-246.13 2.29,-93.64 103.84,-164.88 188.21,-193.98l53 60.34c1.89,-104.43 -31.87,-76.18 -43.23,-114.44 -126.71,27.11 -159.32,40.24 -247.62,128.39z"/>
   <path class="fil1" d="M8715.36 4677.24c9.78,36.18 15.14,24.61 -24.7,28.48l-0.89 -7.56c-94.76,149.67 -69.2,60.84 -109.81,147.98l-46 129.18c-1.86,46.52 4.39,20.69 14.04,37.26 26.04,-40.46 39.88,-80.75 72.94,-129.28l42.73 -53.63c9.16,-52.55 -11.34,-10.77 49.25,-65.78 324.34,-294.44 356.72,221.91 405.18,278.48 62.65,-90.85 -23.78,-205.06 -44.61,-293.63 -32.02,12.38 -19.21,14.06 -25.06,-25.58l-50.01 -22.64 12.71 -8.68c-46.31,-14.96 -49.56,-0.14 -60.9,-49.07l-10.36 7.13c-120.35,-15.35 -121.02,-1.36 -224.52,27.33z"/>
   <path class="fil2" d="M12474.45 3855.61c26.09,81.58 150.92,5.78 198.92,-29.22 -50.43,-100.02 -29.72,-145.04 -134.96,-198.35l0 26.13 -43.89 8.72c-18.04,0.85 -19.23,-3.62 -71.69,5.16l47.41 66.73c-22.49,38.82 -66.41,73.64 4.21,120.84zm8.74 74.46l-51.67 -41.27 13.03 37.11 38.64 4.16z"/>
   <path class="fil4" d="M13634.69 4429.84l61.42 11.27 26.72 3.73 80.33 99.87c11.77,-31.15 4.97,-59.6 -0.92,-140.65 -3.18,-43.76 -9.35,-36.99 -6.86,-73.26 3.71,-54.13 25.12,-57.84 25.52,-58.09 -73.47,-39.34 -63.03,-14.22 -106.82,-94.17l-10.78 3.67c-30.92,7.93 -25.54,15.72 -23.31,-14.23l-19.36 2.78c29.6,21.22 20.03,2.5 -25.44,10.37 -21.72,127.64 -1.14,55.41 18.18,128.44 13.74,51.95 -33.58,0.56 8.77,115.17 -1.6,-2.09 -3.44,-6.6 -4.02,-6.78 -70.97,-21.94 19.32,-19.64 -23.46,11.88z"/>
   <path class="fil2" d="M10429.5 4905.93c-29.7,10.52 -18.02,-23.71 -26.58,41.79l-8.34 12.54 -89.18 52.44 58.78 -111.4c-49.98,22.7 -28.56,-31.76 -34.74,35.54l-17.72 0.08c-15.62,31.25 -31.25,46.75 -52.83,73.63l-51.03 102.83c25.93,6.75 9.35,41.24 56.48,-4.56 -50.71,13.39 -32.79,6.04 -51.26,56.9 -25.01,68.89 5.22,11.76 -37.79,94.27 103.84,-22.5 87.51,-37.96 150.76,-115.27 149.17,-182.31 101.72,-23.62 117.15,-176.38l-13.69 -62.42z"/>
   <path class="fil4" d="M10625.48 6520.54c-0.49,63.71 -26.13,19.67 6.87,108.5 40.9,17.19 142.97,39.72 182.07,0l58.87 -207.35c-166.91,-4.51 -150.11,79.73 -247.81,98.85z"/>
   <path class="fil1" d="M11202.2 4983.19c-188.13,60.04 -155.59,157.35 -219.43,185.31l-19.76 73.56c50.62,-10.69 34.88,-2.92 64.73,-36.94 24.49,-27.91 0.84,-14.58 43.99,-47.3 19.48,-72.8 70.11,-113.75 148.28,-131.22 52.94,-51.57 228.5,-0.2 278.07,252.07l24.86 77.06c10.98,-17.88 47.78,-12.77 0.95,-154.74 -43.6,-132.18 -173.12,-273.98 -299.81,-221.73l-21.88 3.93z"/>
   <path class="fil1" d="M9932.9 4507.71c11.3,73.93 10.74,167.45 22.37,248.81l38.73 165.64c109.12,-294.71 67.94,-113.18 68.32,-448.47 0.2,-181.63 -21.99,-212.29 -3.25,-182.81 -44.86,57.09 23.86,202.91 -57.99,320.66 -125.93,-39.52 60.95,67.39 -40.84,-17.84l-27.82 -41.76c-4.4,-10.55 -0.9,-38.28 0.49,-44.22z"/>
   <path class="fil2" d="M13418.3 4481.06c-48.1,-10.69 -62.94,-28.49 -78.28,24.29l72.7 4.13c-99.25,105.56 -36.54,11.52 -100.45,223.45 62.17,-14.66 129.08,-105.07 217.85,-90.24 17.17,-68.97 4.05,-32.56 33.23,-79.93 -49.22,-81 -59.94,-56.82 -135.97,-47.67l-9.07 -34.01z"/>
   <path class="fil1" d="M11327.35 4829.86l-12.26 6.44 -17.67 34.31 -26.68 38.98c152.08,42.4 129.43,-52.6 277.39,-36.46l90.77 -43.27 -7.58 -54.29 -54.85 -4.09 -186.22 94.63 43.34 -191.2 -41.1 4.04 -65.14 150.91z"/>
   <path class="fil1" d="M12574.03 5754.61c-17.96,20.52 -74.42,36.27 -111.3,45.48 -78.08,19.52 -96.97,1.06 -115.71,74.52l119.95 -8.63 37.54 4.72 42.83 -15.87c-16.38,45.64 -21.51,37.96 -53.59,52.6 13.1,34.3 15.55,24.62 -20.87,16.14 4.45,27.99 10.02,22.33 -17.79,15.84 7.9,31.92 13.31,24.89 -19.31,18.11 5.49,27.01 11.75,21.36 -14.74,20.31 9.73,33.01 15.94,23.47 -17.7,29.21l-38.58 41.43 12.41 34.29c78.53,-62.62 271.98,-241.16 262.29,-346.89l-65.45 18.75z"/>
   <path class="fil1" d="M12018.6 8446.2c-6.72,65.46 -14.31,94.77 -26.46,155.73 -1.61,8.04 -11.29,52.84 -11.43,59.63 -1.57,78.2 -6.28,33.09 24.89,79.25l40.9 -83.25c-11.61,-55.77 20.15,-234.12 54.97,-282.79 -9.72,-45.93 -21.3,-43.92 20.72,-22.76 -3.73,-59.92 -10.55,-32.14 16.39,-40.88 4.01,-42.41 -6.51,-41.82 32.24,-78.87 -6.32,-44.8 -17.58,-42.02 22.59,-22.61 -7.76,-33.95 -16.9,-27.85 14.4,-27.85 7.3,-83.42 49.68,-79.32 63.22,-145.2l-40.04 15.35c-32.39,87.93 -90.6,128.44 -121.82,196.35 -24.92,54.21 -20.59,64.43 -49.1,114.95 -14.97,26.5 -32.54,51.04 -41.45,82.96z"/>
   <path class="fil1" d="M11843.49 4959.93l87.9 -10.2c3.04,60.08 15.58,68.73 -37.56,94.08 3.54,42.99 14.51,37.64 -25.16,25.23 -6.75,72.71 -80.47,184.94 -133.84,241.97l7.86 67.25c23.99,-32.9 37.72,-83.9 60.33,-127.16 47.89,-91.62 54.44,-49.04 142.97,-246.38 35.26,-78.61 56.57,-47.55 21.7,-123.29 -123.95,-3.32 -249.26,42.3 -359.85,89.21 20.54,14 9.8,17.48 49.93,16 0.1,0 48.6,-11.36 58.99,-13.28 44.66,-8.26 80.68,-9.6 126.74,-13.44z"/>
   <path class="fil3" d="M11220.11 4277.64c-0.04,59.56 -13.44,109.62 -18,179.25 -8.74,133.58 -108.32,300.36 -168.53,419.23 -48.25,95.22 11.7,22.47 -18.07,25.16 28.35,-57.14 38.03,-49.45 72.51,-93.25l100.48 -99.63c0.06,7.34 0.26,15.78 -0.04,22.04 -0.28,5.64 -0.05,13.67 -0.46,19.85l-8.15 45.65c-18.66,-39.22 1.47,-37.26 28.1,-95.41 74.22,-162.05 82.35,-199.45 105.83,-353.13 10.4,67.36 -31.46,68.76 -93.59,90.58l-0.09 -160.33z"/>
   <path class="fil2" d="M9255.61 8303.51l-3.76 -201.05 130.26 -5.32c6.79,35.69 29.04,22.48 73.25,23.59 80.64,2.02 73.84,9.79 108.12,-30.8l-181.36 7.22c-48.79,-28.68 -2.95,-25.91 -87.46,-23.53 10.51,-33.54 15.3,-65.94 30.37,-95.72l107.76 14.26 3.79 -53.4c-75.06,-56.43 -122.99,-26.47 -176.62,46.92 -13.47,18.43 -28.46,59.22 -32.14,83.98 -4.13,27.78 -5.6,98.38 -4.71,127.41 2.43,79.7 -18.37,65.16 32.5,106.45z"/>
   <path class="fil4" d="M12930.13 3946.1c-21.24,77.23 -25.98,42.43 -45.72,83.46 -11.84,24.61 -7.09,56.17 -13.92,94.69 34.09,-9.59 26.27,-13.89 15.41,20.25 33.81,-5.34 29.7,-13.16 18.11,18.48 -27.03,-132.31 178.16,-160.56 264.29,-192.43 -32.29,5.7 -25.33,12.4 -20.94,-20.09 -27.91,8.66 -22.66,13.85 -16.61,-14.66 -30.27,4.6 -24.11,10.51 -16.55,-19.51 -32.18,6.94 -26.03,12.42 -15.52,-19.01 -37.17,9.02 -25.87,14.56 -25.87,-26.26 -75.54,7.89 -93.7,23.67 -142.68,75.08z"/>
   <path class="fil3" d="M12538.4 3654.17c-61.12,-22.96 -24.66,-1.15 -53.45,-48.38 -66.19,-32.22 -51.2,-40.94 -122.73,-47.17 -52.36,3.89 -54.16,9.31 -73.22,-42.35 -32.71,-42.35 -110.55,-86.13 -157.58,-132.15 -33.22,-32.5 -118.31,-131.95 -147,-139.66l-5.91 -12.78c1.67,50.3 4.44,83.27 42.23,119.84 35.99,37.54 38.51,-38.43 31.74,61.72 27.96,20.48 5.32,9.86 17.57,-18.48 83.39,49.18 213.83,197.37 328.4,230.88 62.91,18.4 123.33,-4.76 139.94,28.53z"/>
   <path class="fil3" d="M8661.02 5756.35c31.05,49.33 25.97,-42.39 23.58,52.9 -1.87,74.67 -11.29,22.06 -17.83,26.6 63.75,-15.6 74.29,-4.48 127.72,9.81 4.57,-11.45 17.22,-19.52 33.36,-35.87l3.46 4.43c-56.21,-11.55 -19.99,35.35 -53.6,-49.29 -0.72,-1.8 -10.52,-59.91 -10.74,-62.88 -1.91,-24.72 -2.22,-85.67 3.02,-115.65l9.25 -132.03c-89.52,116.68 -83.74,175.89 -118.23,301.98z"/>
   <path class="fil4" d="M13811.29 5108.19c29.76,-15.57 43.04,-61.77 55.3,-102.7 28.61,-95.48 5.15,-41.84 56.77,-110.7 -16.89,-36.68 -93.49,-177.47 -129.34,-207.44 -112.91,-94.42 -152.68,-113.06 -186.31,-70.19 62.04,41.49 120.71,37.56 213.62,107.36 24.28,167.36 -23.58,235.93 -10.03,383.66z"/>
   <path class="fil4" d="M9322.74 6330.67l-54.55 29.02c14.44,-81.11 -3.54,-112.04 -88.38,-117.74l-55.06 208.94c24.4,-24.02 44.39,-10.66 30.45,-56.15l0.63 69.57c109.98,1.61 137.64,-46.46 166.91,-133.64z"/>
   <path class="fil2" d="M11918.65 8553.08c20.94,113.79 72,180.96 83.79,256.78l-58.88 -25.87c20.77,42.63 -38.08,13.65 45.69,48.97 64.96,-40.69 24.1,22.22 49.37,-73.97 17.25,-65.58 14.48,-40.25 7.87,-101.43l-40.9 83.25c-31.16,-46.16 -26.45,-1.05 -24.89,-79.25 0.14,-6.79 9.82,-51.59 11.43,-59.63 12.16,-60.96 19.75,-90.27 26.46,-155.73l-89.98 -5.66c-4.25,15.94 -32.42,98.94 -9.97,112.54z"/>
   <path class="fil3" d="M12624.22 3409.05l56.52 60.87c64.88,72.4 221.28,199.17 320.02,212.49 89.3,26.85 25.32,21.46 143.53,25.77 51.4,1.88 99.25,4.72 125.98,32.03 -64.11,-0.91 -100.27,-19.18 -144.01,-62.01 -77.15,-37.39 -401.04,-167.98 -401.96,-228.99l-50.06 18.09 -64.57 -72.41 -11.05 3.43 6.72 -6.2c29.09,-6.61 23.02,-12.49 18.89,16.92z"/>
   <path class="fil2" d="M8770 5586.41c-5.24,29.97 -4.93,90.93 -3.02,115.65 0.22,2.97 10.02,61.08 10.74,62.88 33.61,84.64 -2.61,37.74 53.6,49.29l30.12 -13.21c2.55,-30.58 -9.79,-351.68 -19.97,-394.07 -39.32,22.24 -19.65,184.21 -26.3,234.98l-45.17 -55.52z"/>
   <path class="fil1" d="M11889.53 5620.16c132.84,-108.67 340.55,-60.99 401.27,-221.48 -54.66,9.44 -164.82,60.03 -221.13,84.73 -52.72,23.13 -61.27,35 -102.68,58.8 -80.13,46.03 -49.79,-10.27 -77.46,77.94z"/>
   <path class="fil2" d="M13608.32 4717.04c84.72,43.64 113.59,153.11 139.26,241.8 51.77,-68.29 80.32,-205.03 -63.18,-257.27 -117.05,-42.6 -65.97,7 -76.09,15.47z"/>
   <path class="fil4" d="M12744.48 7352.56c9.83,32.3 16.09,26.82 -16.48,18.57 8.04,31.12 14.54,25.55 -16.62,19.38 6.59,29.64 12.52,23.7 -17.28,18.31 6.24,30.75 10.92,23.99 -19.4,13.96 7.73,33.01 15.14,27.56 -17.39,20.91 7.48,30.25 13.12,24.29 -17.35,17.48 7.03,31.48 12.33,24.99 -19.04,16.08 9.37,36.45 13.63,26.21 -24.93,18.08l-44.04 -19.02 14 -37.69 -31.81 3.34 -13.58 38.92 46.78 22.62 -41.23 55.03 226.03 -97.65c58.92,-144.53 258.1,-255.76 302.83,-422.1 2.65,4.11 35.28,-26.21 -4.93,44.31 -10.41,18.26 -28.36,34.17 -43.9,49.63 -79.2,78.83 -196.79,227.51 -261.68,219.87z"/>
   <path class="fil2" d="M12748.39 8054.3c-31.74,29.68 -35.14,20.1 -53.39,75.24 -12.93,39.11 -13.37,61.11 -14.17,102.64 -2.73,142.24 15.64,65.26 -35.55,176.35 118.14,-32.49 67.17,-4.61 64.3,-139.84 -2.06,-96.56 11.84,-132.56 38.81,-214.38zm49.64 119.69c-56.99,11.25 25.01,113.57 -73.09,246.13l-14.43 20.06c63.98,-10.79 71.46,-46.49 84.19,-101.97 13.58,-59.08 17.13,-102.74 3.32,-164.22z"/>
   <path class="fil1" d="M11932.74 5337.24c-65.15,22.41 -104.51,27.09 -143.4,81.05l89.78 -1.54 71.56 -10.62c55.3,-41.11 24.66,-8.8 100.82,-29.27 70.28,-18.89 -1.58,-18.78 83.24,-20.41 -32.5,-42.92 13.48,-42.34 -94.78,-40.93 -48.63,0.63 -64.37,7.46 -107.22,21.72z"/>
   <path class="fil2" d="M10554.77 5192.36c-63.67,24.75 -153.67,116.17 -189.62,180.59 68.19,-40.54 125.37,-99.49 189.62,-180.59zm-270.92 350.05c81.78,-46.12 198.47,-182.16 208.85,-191.34 70.75,-62.49 163.82,-103.68 210.72,-192.47 -122.69,63.85 -42.55,11.9 -117.94,87.8 -52.19,52.55 -224.19,176.76 -301.63,296.01zm340.91 -409.54l-63.68 63.87 63.68 -63.87z"/>
   <path class="fil2" d="M13634.69 4429.84c-48.47,-3.63 -18.31,-9.49 -73.04,2.47 -80.95,17.69 -33.28,-22.38 -79.13,39.01 83.24,-4.39 102.6,24.9 168.95,68.19 28.15,18.37 105.7,61.49 138.78,77.57 -9.8,-32.84 -96.67,-164.73 -161.7,-145.37l6.14 -41.87z"/>
   <path class="fil4" d="M13455.4 4874.53c35.38,-11.64 30.03,-18.1 18.21,17.21 41.5,-12.91 28.4,-15.5 17.11,28.43l31.03 70.2 4.36 -52.96c36.4,-53.19 70.92,-98.56 60.04,-160.99 -39.95,0 -36.06,11.37 -24.61,-23.96l-10.54 -2.71 -82.01 62.13 -13.59 62.65z"/>
   <path class="fil4" d="M12417.27 6094.81c-56.48,33.09 -86.48,63.98 -115.02,124.61l40.2 35.54 28.47 -68.02c109.73,-13.06 102.99,-76.41 165.16,-133.58 52.76,-48.53 34.75,-5.92 90.6,-68.09 169.2,-188.36 133.86,-96.65 271.65,-327.78 15.5,-25.99 23.77,-54.36 36.5,-79.44 19.22,39.9 8.56,17.62 -23.01,51.48 -2.47,2.66 -7.01,5.87 -9.52,8.6l-289.63 303.73c-60.59,51.15 -27.2,16.4 -38.81,13.47 45.73,-75.75 90.27,-5.64 95.14,-3.11 -33.35,53.1 -116.47,123.94 -181.07,127.72 -1.09,-23.96 -45.76,-33.5 26.94,-62.65l-66.01 79.72c-1.47,-96.55 42.43,15.02 43.57,17.01 -97.33,97.42 -59.35,51.07 -116.63,52.4l41.45 -71.62z"/>
   <path class="fil2" d="M12520.59 7784.61c35.8,-13.71 67.5,-30.31 102.07,-42.16 78.32,-26.84 77.94,-22.43 121.76,19.75 -30.28,-8.69 -24.05,-15.84 -24.05,13.98 38.18,12.97 35.67,23.98 24.05,-13.98 -1.01,2.11 -1.99,4.3 -0.94,6.94 1.47,3.72 6.75,4.05 8.76,4.55 3.77,0.93 12.34,1.21 18.46,2.16 -36.16,-79.39 -2.12,5.2 2.44,-63.58 -41.02,-34.08 -156.1,-46.3 -205.69,-29.42 -1.09,48.59 9.63,10.7 -35.14,43.18l-11.71 58.59z"/>
   <path class="fil1" d="M12520.59 7784.61l-208.44 167.12c-6.3,43.43 -11.89,5.12 30.12,32.37 12.34,-100.96 275.58,-231.2 378.1,-207.93 0,-29.81 -6.24,-22.67 24.05,-13.98 -43.81,-42.17 -43.43,-46.59 -121.76,-19.75 -34.57,11.85 -66.27,28.45 -102.07,42.16zm-247.47 233.88l32.74 0 -13.38 -40.95 -19.37 40.95z"/>
   <path class="fil2" d="M8601.6 5846.72c78.21,1.58 158.1,28.16 227.41,31.07l-1.15 -68.01c-16.15,16.36 -28.79,24.43 -33.36,35.87 -53.44,-14.29 -63.98,-25.41 -127.72,-9.81 6.54,-4.55 15.96,48.06 17.83,-26.6 2.4,-95.29 7.48,-3.57 -23.58,-52.9 -38.19,46.5 7.78,58.21 -34.05,23.43l7.35 -130.3c-39.9,46.54 -18.84,-44.85 -34.73,71.44 -1.2,8.78 5.03,46.15 6.23,54.85 8.87,64.04 22.97,1.93 -4.21,70.97z"/>
   <path class="fil1" d="M11553.79 6016.44c-149.31,-93.19 -354.09,-142.73 -537.27,-109.71 98.42,25.55 171.21,30.54 274.73,41.7 117.75,12.71 158.79,34.17 262.55,68.01z"/>
   <path class="fil4" d="M13815.62 5247.33c12.69,77.77 5.3,24.05 -18.7,40.9 16.74,73.03 3.89,20.58 -16.75,36.89l-24.12 115.7c-8.47,-30.61 -14.07,-24.67 16.95,-17.73 -7.49,-31.49 -12.81,-24.97 18.8,-16.57 -8.21,-30.86 -15.35,-25.53 15.3,-21.17 -5.87,-31.13 -10.45,-20.92 24.71,-20.92l37.83 -36.29c4.94,-73.32 2.04,-126.35 -23.64,-188.42 -34.9,57.26 -30.89,40.11 -30.38,107.6z"/>
   <path class="fil2" d="M8522.87 5750.25c-31.96,-7.58 -27.86,-14.71 -17.76,16.14 -30.46,2.12 -26.73,-30.61 -19.24,35.85 -30.34,2.13 -22.52,-36.07 -23.99,43 31.81,-21.01 46.27,31.63 23.99,-43 24.21,-12.97 38.14,40.52 19.24,-35.85 32.63,9.89 27.74,16.32 17.76,-16.14 15.08,-18.95 48.74,20.89 9.02,-33.38 -0.61,11.55 -4.93,49.68 -3.2,58.03 16.37,79.1 -3.99,20.62 34.25,70.35 -2.22,-52.33 -16.5,-41.95 30.97,-41.95l0.89 -197.2 -34.31 70.53c-25.96,42.4 -35.28,-2.86 -37.62,73.64z"/>
   <path class="fil3" d="M7684.84 4116.7l-0.1 27.17 -17.96 0.92 -0.62 7.82 18.58 -8.74c43.18,-43.86 118.55,-92.78 173.1,-128.58 22.97,-15.08 169.44,-112.4 173.73,-117.65 0,-36.71 -10.41,-30.69 22.76,-26.99l7.48 6.23c-100.12,7 -330.77,172.49 -376.96,239.82z"/>
   <path class="fil1" d="M8622.46 6968.1c-46.61,-30.52 -103.28,-32.83 -156.78,-78.62 -46.46,-39.75 -48.61,-91.82 -93.68,-131.89 -51.42,90.02 159.19,273.12 250.46,210.52z"/>
   <path class="fil2" d="M9319.84 6290.58l75.96 -4.84 17.21 -37.86c85.57,44.32 90.86,17.98 114.72,-51.82 -37.5,0.41 -22.48,-0.35 -58.14,18.36 -23.37,30.72 59.22,33.59 -39.91,20.59l44.62 -21.87c-29.55,-85.35 -10.37,-32.18 -49.58,-64.89l23.84 48.79c-104.34,44.25 0.21,-6.98 -44.61,-1.87 -50.46,5.75 7.54,-13.83 -10.96,10.45l-33.46 35.68 -39.67 49.28z"/>
   <path class="fil4" d="M13602.92 3921.55l28.95 118.02 34.96 24.5c26.31,26.49 28.7,-2.21 21.1,31.37 -27.78,-130.21 3.49,-204.06 26.15,-316.39l-51.58 123 -59.59 19.51z"/>
   <path class="fil3" d="M13803.69 3645.91c-93.55,16.21 -152.59,184.77 -210.14,260.37l9.37 15.28 59.59 -19.51 51.58 -123c38.4,-101.98 29.27,-102.89 115.26,-152.31l-25.65 19.17z"/>
   <path class="fil1" d="M10944.76 7207.6c-43.7,-99.42 16.94,1.97 -108.65,-102.44 -41.09,-34.16 2.18,-5.28 -54.06,-39.91 25.04,105.5 49.79,135.61 162.71,142.35z"/>
   <path class="fil4" d="M11071.74 5157.82c-11.62,31.56 13.82,27.09 -24.92,26.85l40.41 -33.98 45.65 -34.78c50.46,-0.13 8.59,-7.38 36.96,34.6 48.9,-64.31 31.42,-72.75 50.17,-123.92 -78.17,17.48 -128.8,58.43 -148.28,131.22z"/>
   <path class="fil1" d="M12538.77 6972.61l-2.34 25.17c81.42,9.64 105.03,-32.34 124.86,-106.84 -81.91,14.21 -87.84,4.19 -122.52,81.67z"/>
   <path class="fil1" d="M12809.68 7043.49c-5.62,-30.85 -11.01,-24.39 19.58,-15.52 -7.64,-32.29 -14.32,-26.64 17.72,-19.2 15.3,-22.54 -40.6,-30.75 34.45,-19.28 -6.01,-28.72 -12.06,-22.87 16.72,-18.87 -4.65,-27.81 -10.37,-21.91 17.55,-17.35 -4.25,-28.16 -10.28,-22.66 17.55,-17.1 -4.36,-32.56 -9.79,-21.96 26.84,-21.96l-4.99 -3.57c-8.65,-39.72 -18.91,-35.95 18.68,-23.69 25.14,-86.88 63.35,-60.92 99.74,-124.18 37.38,-64.97 32.15,-95.33 111.55,-129.53 -7.21,-29.37 -12.64,-23.39 17.08,-17.19 -13.19,-74.95 -3.35,-19.62 19.24,-34.87 -8.82,-33.85 -13.43,-23.26 24.24,-23.26l-5.17 -4.18c6.45,-36.86 -2.98,-51.45 42.82,-67.07 46.54,-49.14 139.23,-266.19 151.03,-331.95 -12.73,-84.1 0.01,-33.99 18.13,-56.47 -3.94,-37.44 -8.43,-12.89 9.11,-16.9l-294.73 322.55c-47.14,39.7 -39.08,44.38 -76.35,82.77 -9.88,-29.97 -17.84,10.04 7,-27.14l95.59 -102.02c76.83,-76.51 71.81,-104.39 182.42,-120.23 -20.47,70.33 -29.38,72.55 -56.46,132.34 -16.94,37.41 -32.37,74.16 -50.65,111.17 -27.25,55.22 -317.99,519 -419.02,459.3 43.53,70.92 -14.26,97.52 -83.73,127.25l44.08 -23.89z"/>
   <path class="fil4" d="M12769.98 7766.11c54.34,67.76 -4.06,55.17 88.89,92.06l53.44 -89.04c-84.54,-9.34 -43.25,-19.94 -85.13,3.9l-57.2 -6.92z"/>
   <path class="fil4" d="M7555.18 6450.9c4.6,74.21 8.73,178.28 42.09,228.26l13.07 -236.35c-11.71,-67.82 -13.95,-43.61 11.34,-63.15 -5.74,94.69 6.76,57.58 -66.5,71.25z"/>
   <path class="fil2" d="M10033.1 5906.07l-120.13 36.55c-3.95,2.26 -11.36,14.86 -14.23,10.7 -3.04,-4.41 -9.7,8.05 -14.57,12.03 66.14,-7.29 111.23,-17.55 148.92,-59.28zm-146.74 162.94c70.08,-23.28 30.26,-15.58 81.29,-50.69 45.21,-31.09 44.85,-13.8 94.48,-58.48 -96.37,11.89 -113.81,36.13 -175.78,109.17z"/>
   <path class="fil1" d="M8116.04 5462.14c11.08,-3.04 71.29,41.63 79.68,-101.09 -31.39,6.88 -9.21,-29.59 -57.81,20.82 -46.37,48.1 -19.98,47.11 -21.88,80.27z"/>
   <path class="fil4" d="M12681.35 3966.11c42.33,-10.81 39.11,-22.89 27.25,17.34 32.79,-10.85 27.83,-17.83 19.78,15.42 32.93,-8.46 25.57,-13.37 16.56,19.95l-14.11 -30.01 60.24 -84.24 0.41 -6.27 -11.13 -1.92c-67.49,3 -84.48,11.53 -134.14,60.5l35.14 9.25z"/>
   <path class="fil4" d="M9509.92 6682.48l-88.89 -17.73c-5.79,9.97 -32.23,-41.74 -10.12,38.22 13.74,49.69 -9.76,7.59 34.03,46.17l49.58 -33.23c24.76,-59.77 -18.96,-20.88 -23.27,-20.16l38.66 -13.28z"/>
   <path class="fil2" d="M9421.02 6664.75l88.89 17.73 -8.74 -61.42 -30.93 21.37 -16.91 -48.84c-48.35,13.75 -35.31,20.18 -32.31,71.17z"/>
   <path class="fil4" d="M7135.08 5175.44c-38.37,85.55 -116.25,208.69 -102.1,304.18l102.1 -304.18z"/>
   <path class="fil2" d="M10603.09 6336.15c20.68,-60.62 -15.76,-29.89 43.2,-52.52 -52.66,-22.4 4.99,2.26 -81.27,-13.54l7.48 13.26 -23.99 -8.24c18.03,69.06 -50.77,56.8 54.58,61.04z"/>
   <path class="fil1" d="M12230.85 5027.5c14.81,-27.7 153,-88.72 201.95,-90.22 -81.65,-40.49 -177.3,40.58 -201.95,90.22z"/>
   <path class="fil2" d="M12947.93 3502.35c-15.3,-50.97 -36.82,-43.12 -79.35,-54.25l26.46 77.39 52.89 -23.15z"/>
   <path class="fil2" d="M7444.41 8202.29c26.97,61.44 -4.68,18.12 46.81,47.78 -33.78,-57.19 -60.27,-133.23 -103.31,-173.08l56.5 125.3z"/>
   <path class="fil3" d="M8522.87 5750.25c9.99,32.45 14.88,26.02 -17.76,16.14 18.91,76.38 4.97,22.89 -19.24,35.85 22.29,74.64 7.83,22 -23.99,43l101.05 0c-38.24,-49.73 -17.89,8.76 -34.25,-70.35 -1.73,-8.35 2.59,-46.48 3.2,-58.03 39.72,54.27 6.06,14.44 -9.02,33.38z"/>
   <path class="fil2" d="M12289.01 3516.27c19.06,51.66 20.86,46.24 73.22,42.35l-9.52 -46.86 -63.7 4.51z"/>
   <path class="fil1" d="M9312.91 7074.88c46.43,-45.15 41.14,-30.67 18.07,-70.66 -42.94,33.02 -46.87,17.92 -18.07,70.66z"/>
   <path class="fil3" d="M12574.03 7639.43c15.89,-13.01 25.24,-19.64 40.83,-28.94 18.53,-11.05 0.2,7.75 25.49,-9.54 -60.03,-0.78 -82.01,2.11 -121.91,33.78l55.59 4.7z"/>
   <polygon class="fil4" points="12985.71,4240.47 13030.63,4297.41 13034.66,4227.73 "/>
   <path class="fil2" d="M14004.95 4848.93c26.89,-95.11 14.27,-31.38 -27.59,-43.18 -4.19,22.41 -16,29.23 27.59,43.18z"/>
   <path class="fil1" d="M11822.2 4527.12c41.58,23.56 -3.6,37.32 59.4,-4.48 -65.22,-44.33 -18.51,-25.79 -59.4,4.48z"/>
   <path class="fil2" d="M10632.35 6356.61l64.16 -19.12c-1.13,-2.27 21.01,-17.89 -17.87,-15.21 -25.04,1.74 -0.57,-6.82 -22.15,12.21l19.73 1.42c-71.25,-7.5 -6.45,-10.96 -43.87,20.7z"/>
   <path class="fil4" d="M11978.52 3231.68l5.91 12.78c-8.24,-49.16 -17.62,-76.06 -56.92,-93.79l51.01 81.01z"/>
   <polygon class="fil1" points="11875.14,5631.48 11870.29,5600.23 11833.8,5626.71 "/>
   <path class="fil2" d="M12624.22 3409.05c4.13,-29.4 10.21,-23.53 -18.89,-16.92l-6.72 6.2 -28.91 -46.67c31.24,74.03 2,24.35 35.63,40.47 -5.71,29 -10.87,22.22 18.89,16.92l56.52 60.87 -56.52 -60.87zm-14.56 -14.15l64.57 72.41 -64.57 -72.41z"/>
   <path class="fil4" d="M12721.66 6065.71l83.94 -30.37c40.81,-43.43 22.27,-17.64 44.28,-69.48 13.43,-31.61 6.94,-32.61 26.97,-49.37 7.5,17.36 39.09,-14.04 -20.53,48.7 -49.82,52.41 -105.45,123.18 -134.67,100.52z"/>
   <path class="fil2" d="M8108.03 6059.09c1.11,9.47 13.73,21.73 17.98,-1.25 3.17,-17.14 -20.36,-19.03 -17.98,1.25z"/>
   <path class="fil2" d="M8577.66 5898.77c0.55,12.11 15.7,23.07 10.63,2.3 -4.69,-19.22 -10.71,-4.12 -10.63,-2.3z"/>
  </g>
 </g>
</svg>
